<svg width="250" height="43" viewBox="0 0 250 43" fill="none" xmlns="http://www.w3.org/2000/svg">
<path d="M20.2685 6.77606C25.1965 6.77606 29.3405 9.01606 30.6285 13.8321H38.1885C37.0125 5.48806 29.7885 0.0560608 20.4365 0.0560608C8.1165 0.0560608 -0.00349995 8.90406 -0.00349995 21.3361C-0.00349995 33.9361 8.0045 42.2801 19.4845 42.2801C25.0285 42.2801 29.6765 40.0961 31.9165 36.9601L32.3645 41.6641H38.4125V18.6481H19.3725V24.9761H31.7485V25.1441C31.7485 31.6961 27.4365 35.6161 20.3245 35.6161C12.7645 35.6161 7.5005 30.6321 7.5005 21.5041C7.5005 12.6561 12.1485 6.77606 20.2685 6.77606ZM62.5052 13.8881C61.3852 13.6081 60.4332 13.4961 59.4812 13.4961C55.7852 13.4961 53.1532 15.3441 51.9772 18.0881L51.5852 14.0561H45.1452V41.6641H51.9772V28.2241C51.9772 22.8481 55.0572 20.2161 59.9852 20.2161H62.5052V13.8881ZM64.5759 27.7761C64.5759 36.4001 70.7919 42.3361 79.3599 42.3361C87.9279 42.3361 94.1439 36.4001 94.1439 27.7761C94.1439 19.1521 87.9279 13.2161 79.3599 13.2161C70.7919 13.2161 64.5759 19.1521 64.5759 27.7761ZM71.4079 27.7761C71.4079 22.7361 74.6559 19.3201 79.3599 19.3201C84.0639 19.3201 87.3119 22.7361 87.3119 27.7761C87.3119 32.8161 84.0639 36.2321 79.3599 36.2321C74.6559 36.2321 71.4079 32.8161 71.4079 27.7761ZM97.9353 27.7761C97.9353 36.5681 103.423 42.3921 111.823 42.3921C119.047 42.3921 124.423 37.9681 125.263 31.5281H118.375C117.647 34.5521 115.239 36.2321 111.823 36.2321C107.455 36.2321 104.767 32.9841 104.767 27.7761C104.767 22.5681 107.679 19.2641 112.047 19.2641C115.295 19.2641 117.591 20.8881 118.375 24.0241H125.207C124.479 17.3601 119.327 13.1601 111.767 13.1601C103.591 13.1601 97.9353 19.2081 97.9353 27.7761ZM137.236 41.6641V6.1512e-05H130.46V41.6641H137.236ZM142.779 27.7761C142.779 36.4001 148.995 42.3361 157.563 42.3361C166.131 42.3361 172.347 36.4001 172.347 27.7761C172.347 19.1521 166.131 13.2161 157.563 13.2161C148.995 13.2161 142.779 19.1521 142.779 27.7761ZM149.611 27.7761C149.611 22.7361 152.859 19.3201 157.563 19.3201C162.267 19.3201 165.515 22.7361 165.515 27.7761C165.515 32.8161 162.267 36.2321 157.563 36.2321C152.859 36.2321 149.611 32.8161 149.611 27.7761ZM184.594 41.6641V26.7681C184.594 22.2881 187.17 19.3761 191.37 19.3761C194.898 19.3761 197.194 21.6161 197.194 26.2641V41.6641H204.026V24.6401C204.026 17.4721 200.442 13.1601 193.498 13.1601C189.746 13.1601 186.386 14.7841 184.65 17.5841L184.09 14.0001H177.762V41.6641H184.594ZM223.115 42.3921C230.339 42.3921 235.379 38.7521 236.555 32.7041H230.227C229.443 35.3361 226.979 36.7921 223.227 36.7921C218.691 36.7921 216.115 34.3281 215.611 29.4561L236.443 29.4001V27.3281C236.443 18.7041 231.179 13.1601 222.891 13.1601C214.771 13.1601 209.115 19.1521 209.115 27.8321C209.115 36.4001 214.883 42.3921 223.115 42.3921ZM222.947 18.7601C227.035 18.7601 229.667 21.2801 229.667 25.0881H215.779C216.451 20.9441 218.915 18.7601 222.947 18.7601ZM244.808 42.3361C247.272 42.3361 249.344 40.3201 249.344 37.9121C249.344 35.4481 247.272 33.4321 244.808 33.4321C242.344 33.4321 240.272 35.4481 240.272 37.9121C240.272 40.3201 242.344 42.3361 244.808 42.3361Z" fill="#FC4B37"/>
</svg>
