<svg width="761" height="580" viewBox="0 0 761 580" fill="none" xmlns="http://www.w3.org/2000/svg">
<path d="M0 20C0 8.95432 8.95431 0 20 0H761V580H20C8.95433 580 0 571.046 0 560V20Z" fill="white"/>
<rect x="325" y="68" width="125" height="40" rx="20" fill="#FC4B37"/>
<path d="M356.46 93.168C358.882 93.168 360.758 91.74 361.15 89.584H359.288C358.952 90.718 357.888 91.446 356.502 91.446C354.626 91.446 353.422 90.046 353.422 87.876C353.422 85.692 354.612 84.32 356.502 84.32C357.86 84.32 358.882 85.02 359.232 86.21H361.122C360.772 84.012 358.966 82.598 356.544 82.598C353.548 82.598 351.546 84.712 351.546 87.89C351.546 91.096 353.478 93.168 356.46 93.168ZM362.099 89.528C362.099 91.684 363.653 93.168 365.795 93.168C367.937 93.168 369.491 91.684 369.491 89.528C369.491 87.372 367.937 85.888 365.795 85.888C363.653 85.888 362.099 87.372 362.099 89.528ZM363.807 89.528C363.807 88.268 364.619 87.414 365.795 87.414C366.971 87.414 367.783 88.268 367.783 89.528C367.783 90.788 366.971 91.642 365.795 91.642C364.619 91.642 363.807 90.788 363.807 89.528ZM372.553 93V89.276C372.553 88.156 373.197 87.428 374.247 87.428C375.129 87.428 375.703 87.988 375.703 89.15V93H377.411V88.744C377.411 86.952 376.515 85.874 374.779 85.874C373.841 85.874 373.001 86.28 372.567 86.98L372.427 86.084H370.845V93H372.553ZM381.441 93V87.512H382.785V86.084H381.441V83.928H379.733V86.084H378.403V87.512H379.733V93H381.441ZM385.864 93.182C386.942 93.182 387.88 92.692 388.174 91.978L388.3 93H389.798V88.8C389.798 86.882 388.65 85.874 386.788 85.874C384.912 85.874 383.68 86.854 383.68 88.352H385.136C385.136 87.624 385.696 87.204 386.704 87.204C387.572 87.204 388.132 87.582 388.132 88.52V88.674L386.06 88.828C384.422 88.954 383.498 89.752 383.498 91.026C383.498 92.328 384.394 93.182 385.864 93.182ZM386.424 91.894C385.654 91.894 385.234 91.586 385.234 90.956C385.234 90.396 385.64 90.046 386.704 89.948L388.146 89.836V90.2C388.146 91.264 387.474 91.894 386.424 91.894ZM391.07 89.528C391.07 91.726 392.442 93.182 394.542 93.182C396.348 93.182 397.692 92.076 397.902 90.466H396.18C395.998 91.222 395.396 91.642 394.542 91.642C393.45 91.642 392.778 90.83 392.778 89.528C392.778 88.226 393.506 87.4 394.598 87.4C395.41 87.4 395.984 87.806 396.18 88.59H397.888C397.706 86.924 396.418 85.874 394.528 85.874C392.484 85.874 391.07 87.386 391.07 89.528ZM401.525 93V87.512H402.869V86.084H401.525V83.928H399.817V86.084H398.487V87.512H399.817V93H401.525ZM407.886 89.262C407.886 91.67 409.454 93.168 411.932 93.168C414.424 93.168 415.992 91.656 415.992 89.262V82.766H414.2V89.15C414.2 90.606 413.388 91.432 411.932 91.432C410.476 91.432 409.678 90.62 409.678 89.15V82.766H407.886V89.262ZM417.317 90.9C417.317 92.258 418.409 93.182 420.131 93.182C421.839 93.182 423.029 92.314 423.029 90.914C423.029 89.85 422.441 89.318 421.279 89.052L420.033 88.758C419.445 88.618 419.137 88.366 419.137 87.974C419.137 87.456 419.529 87.148 420.201 87.148C420.859 87.148 421.251 87.526 421.265 88.114H422.889C422.875 86.77 421.825 85.874 420.271 85.874C418.675 85.874 417.527 86.686 417.527 88.044C417.527 89.15 418.129 89.738 419.375 90.018L420.621 90.312C421.237 90.452 421.419 90.704 421.419 91.054C421.419 91.558 420.985 91.88 420.187 91.88C419.403 91.88 418.955 91.502 418.941 90.9H417.317Z" fill="white"/>
<rect x="30.5" y="68.5" width="279" height="39" rx="19.5" stroke="#D8D8D8"/>
<path d="M52.616 85.58C52.616 86.952 53.442 87.848 55.01 88.226L56.704 88.646C57.782 88.898 58.286 89.486 58.286 90.382C58.286 91.53 57.348 92.244 55.878 92.244C54.506 92.244 53.582 91.558 53.526 90.508H52.49C52.616 92.146 53.932 93.168 55.878 93.168C57.95 93.168 59.294 92.062 59.294 90.326C59.294 88.968 58.482 88.072 56.914 87.694L55.192 87.274C54.142 87.008 53.624 86.448 53.624 85.566C53.624 84.432 54.548 83.704 55.962 83.704C57.222 83.704 57.992 84.348 58.104 85.482H59.126C58.972 83.802 57.782 82.794 55.976 82.794C53.96 82.794 52.616 83.9 52.616 85.58ZM63.7387 93.168C65.3347 93.168 66.3847 92.398 66.7487 90.97H65.8247C65.5727 91.866 64.8587 92.342 63.7527 92.342C62.2967 92.342 61.4287 91.39 61.3587 89.738H66.7487V89.262C66.7487 87.344 65.5027 86.042 63.6687 86.042C61.7367 86.042 60.4207 87.498 60.4207 89.612C60.4207 91.74 61.7507 93.168 63.7387 93.168ZM63.6687 86.868C64.9427 86.868 65.7827 87.736 65.7827 89.038H61.3867C61.5547 87.708 62.3947 86.868 63.6687 86.868ZM70.1708 93.168C71.3188 93.168 72.2428 92.664 72.6628 91.81L72.7888 93H73.6008V88.618C73.6008 86.826 72.4528 86.042 70.8848 86.042C69.2188 86.042 68.0988 86.924 68.0988 88.296H68.9808C68.9808 87.386 69.6808 86.854 70.8568 86.854C71.8508 86.854 72.6488 87.274 72.6488 88.604V88.828L70.4088 89.01C68.8268 89.136 67.8748 89.92 67.8748 91.166C67.8748 92.356 68.7288 93.168 70.1708 93.168ZM70.3948 92.384C69.4708 92.384 68.8548 91.964 68.8548 91.138C68.8548 90.382 69.3728 89.822 70.6468 89.71L72.6488 89.556V89.92C72.6488 91.39 71.8228 92.384 70.3948 92.384ZM79.0813 86.14C78.8433 86.084 78.6613 86.07 78.4513 86.07C77.4993 86.07 76.7853 86.546 76.5193 87.274L76.4493 86.224H75.5393V93H76.5053V89.136C76.5053 87.848 77.3033 87.008 78.5493 87.008H79.0813V86.14ZM79.6297 89.626C79.6297 91.754 80.9317 93.168 82.8497 93.168C84.3897 93.168 85.5937 92.258 85.9157 90.872H84.9357C84.6697 91.74 83.8577 92.3 82.8497 92.3C81.4777 92.3 80.5817 91.222 80.5817 89.612C80.5817 87.946 81.5477 86.896 82.9197 86.896C83.8577 86.896 84.6697 87.414 84.9217 88.352H85.8877C85.6217 86.952 84.4737 86.042 82.9057 86.042C80.9317 86.042 79.6297 87.498 79.6297 89.626ZM88.3451 92.986V89.304C88.3451 88.002 89.1011 86.924 90.5571 86.924C91.6071 86.924 92.3491 87.484 92.3491 89.066V93H93.3151V88.856C93.3151 87.148 92.5171 86.042 90.7391 86.042C89.6051 86.042 88.7791 86.588 88.3451 87.4V82.794H87.3791V92.986H88.3451ZM98.3672 86.224V87.036H99.4032V93H100.369V87.036H101.965V86.224H100.369V84.908C100.369 84.11 100.593 83.676 101.447 83.676H102.021V82.85C101.797 82.808 101.517 82.794 101.279 82.794C100.243 82.794 99.4032 83.382 99.4032 84.908V86.224H98.3672ZM102.598 89.612C102.598 91.67 104.054 93.168 106.042 93.168C108.03 93.168 109.486 91.67 109.486 89.612C109.486 87.54 108.03 86.042 106.042 86.042C104.054 86.042 102.598 87.54 102.598 89.612ZM103.578 89.598C103.578 88.03 104.586 86.91 106.042 86.91C107.484 86.91 108.506 88.03 108.506 89.598C108.506 91.194 107.484 92.3 106.042 92.3C104.586 92.3 103.578 91.194 103.578 89.598ZM114.573 86.14C114.335 86.084 114.153 86.07 113.943 86.07C112.991 86.07 112.277 86.546 112.011 87.274L111.941 86.224H111.031V93H111.997V89.136C111.997 87.848 112.795 87.008 114.041 87.008H114.573V86.14ZM119.264 89.626C119.264 91.754 120.566 93.168 122.484 93.168C124.024 93.168 125.228 92.258 125.55 90.872H124.57C124.304 91.74 123.492 92.3 122.484 92.3C121.112 92.3 120.216 91.222 120.216 89.612C120.216 87.946 121.182 86.896 122.554 86.896C123.492 86.896 124.304 87.414 124.556 88.352H125.522C125.256 86.952 124.108 86.042 122.54 86.042C120.566 86.042 119.264 87.498 119.264 89.626ZM126.538 89.612C126.538 91.67 127.994 93.168 129.982 93.168C131.97 93.168 133.426 91.67 133.426 89.612C133.426 87.54 131.97 86.042 129.982 86.042C127.994 86.042 126.538 87.54 126.538 89.612ZM127.518 89.598C127.518 88.03 128.526 86.91 129.982 86.91C131.424 86.91 132.446 88.03 132.446 89.598C132.446 91.194 131.424 92.3 129.982 92.3C128.526 92.3 127.518 91.194 127.518 89.598ZM135.937 93V89.458C135.937 87.932 136.721 86.924 138.107 86.924C139.227 86.924 139.941 87.484 139.941 89.066V93H140.907V88.856C140.907 87.148 140.137 86.042 138.275 86.042C137.295 86.042 136.399 86.532 135.951 87.4L135.811 86.224H134.971V93H135.937ZM144.386 93V87.036H145.744V86.224H144.386V84.082H143.434V86.224H142.076V87.036H143.434V93H144.386ZM148.839 93.168C149.987 93.168 150.911 92.664 151.331 91.81L151.457 93H152.269V88.618C152.269 86.826 151.121 86.042 149.553 86.042C147.887 86.042 146.767 86.924 146.767 88.296H147.649C147.649 87.386 148.349 86.854 149.525 86.854C150.519 86.854 151.317 87.274 151.317 88.604V88.828L149.077 89.01C147.495 89.136 146.543 89.92 146.543 91.166C146.543 92.356 147.397 93.168 148.839 93.168ZM149.063 92.384C148.139 92.384 147.523 91.964 147.523 91.138C147.523 90.382 148.041 89.822 149.315 89.71L151.317 89.556V89.92C151.317 91.39 150.491 92.384 149.063 92.384ZM153.731 89.626C153.731 91.754 155.033 93.168 156.951 93.168C158.491 93.168 159.695 92.258 160.017 90.872H159.037C158.771 91.74 157.959 92.3 156.951 92.3C155.579 92.3 154.683 91.222 154.683 89.612C154.683 87.946 155.649 86.896 157.021 86.896C157.959 86.896 158.771 87.414 159.023 88.352H159.989C159.723 86.952 158.575 86.042 157.007 86.042C155.033 86.042 153.731 87.498 153.731 89.626ZM163.035 93V87.036H164.393V86.224H163.035V84.082H162.083V86.224H160.725V87.036H162.083V93H163.035ZM165.077 91.096C165.077 92.356 166.029 93.168 167.555 93.168C169.095 93.168 170.131 92.37 170.131 91.152C170.131 90.172 169.599 89.626 168.423 89.332L167.261 89.038C166.519 88.856 166.155 88.492 166.155 87.974C166.155 87.246 166.687 86.84 167.639 86.84C168.549 86.84 169.095 87.302 169.123 88.086H170.061C170.019 86.826 169.095 86.042 167.667 86.042C166.211 86.042 165.217 86.798 165.217 87.988C165.217 88.912 165.791 89.528 166.967 89.822L168.129 90.116C168.927 90.312 169.207 90.634 169.207 91.194C169.207 91.922 168.591 92.37 167.541 92.37C166.589 92.37 166.001 91.88 166.001 91.096H165.077Z" fill="#707070"/>
<line x1="30" y1="129.5" x2="731" y2="129.5" stroke="#D8D8D8"/>
<path d="M282.226 165V156.656L287.756 165H288.75V154.976H287.756V163.32L282.24 154.976H281.218V165H282.226ZM292.934 165.168C294.082 165.168 295.006 164.664 295.426 163.81L295.552 165H296.364V160.618C296.364 158.826 295.216 158.042 293.648 158.042C291.982 158.042 290.862 158.924 290.862 160.296H291.744C291.744 159.386 292.444 158.854 293.62 158.854C294.614 158.854 295.412 159.274 295.412 160.604V160.828L293.172 161.01C291.59 161.136 290.638 161.92 290.638 163.166C290.638 164.356 291.492 165.168 292.934 165.168ZM293.158 164.384C292.234 164.384 291.618 163.964 291.618 163.138C291.618 162.382 292.136 161.822 293.41 161.71L295.412 161.556V161.92C295.412 163.39 294.586 164.384 293.158 164.384ZM299.269 165V160.8C299.269 159.764 299.955 158.924 301.089 158.924C302.111 158.924 302.769 159.596 302.769 160.744V165H303.721V160.814C303.721 159.764 304.393 158.91 305.527 158.91C306.563 158.91 307.207 159.596 307.207 160.758V165H308.145V160.562C308.145 158.994 307.179 158.042 305.709 158.042C304.617 158.042 303.791 158.602 303.483 159.484C303.161 158.602 302.363 158.042 301.299 158.042C300.347 158.042 299.591 158.476 299.255 159.19L299.143 158.224H298.303V165H299.269ZM312.93 165.168C314.526 165.168 315.576 164.398 315.94 162.97H315.016C314.764 163.866 314.05 164.342 312.944 164.342C311.488 164.342 310.62 163.39 310.55 161.738H315.94V161.262C315.94 159.344 314.694 158.042 312.86 158.042C310.928 158.042 309.612 159.498 309.612 161.612C309.612 163.74 310.942 165.168 312.93 165.168ZM312.86 158.868C314.134 158.868 314.974 159.736 314.974 161.038H310.578C310.746 159.708 311.586 158.868 312.86 158.868Z" fill="black"/>
<path d="M468.224 165V164.076H463.226V160.422H467.748V159.512H463.226V155.9H468.21V154.976H462.218V165H468.224ZM471.027 165V160.8C471.027 159.764 471.713 158.924 472.847 158.924C473.869 158.924 474.527 159.596 474.527 160.744V165H475.479V160.814C475.479 159.764 476.151 158.91 477.285 158.91C478.321 158.91 478.965 159.596 478.965 160.758V165H479.903V160.562C479.903 158.994 478.937 158.042 477.467 158.042C476.375 158.042 475.549 158.602 475.241 159.484C474.919 158.602 474.121 158.042 473.057 158.042C472.105 158.042 471.349 158.476 471.013 159.19L470.901 158.224H470.061V165H471.027ZM483.792 165.168C484.94 165.168 485.864 164.664 486.284 163.81L486.41 165H487.222V160.618C487.222 158.826 486.074 158.042 484.506 158.042C482.84 158.042 481.72 158.924 481.72 160.296H482.602C482.602 159.386 483.302 158.854 484.478 158.854C485.472 158.854 486.27 159.274 486.27 160.604V160.828L484.03 161.01C482.448 161.136 481.496 161.92 481.496 163.166C481.496 164.356 482.35 165.168 483.792 165.168ZM484.016 164.384C483.092 164.384 482.476 163.964 482.476 163.138C482.476 162.382 482.994 161.822 484.268 161.71L486.27 161.556V161.92C486.27 163.39 485.444 164.384 484.016 164.384ZM489.636 156.362C490.028 156.362 490.364 156.04 490.364 155.648C490.364 155.256 490.028 154.92 489.636 154.92C489.244 154.92 488.922 155.256 488.922 155.648C488.922 156.04 489.244 156.362 489.636 156.362ZM489.16 165H490.126V158.224H489.16V165ZM493.149 165V154.794H492.183V165H493.149Z" fill="black"/>
<path d="M644.04 161.318C645.958 161.318 647.19 159.946 647.19 158.126C647.19 156.236 645.972 154.976 644.04 154.976H640.218V165H641.226V161.318H644.04ZM643.9 155.886C645.286 155.886 646.14 156.726 646.14 158.112C646.14 159.484 645.3 160.408 643.844 160.408H641.226V155.886H643.9ZM649.574 164.986V161.304C649.574 160.002 650.33 158.924 651.786 158.924C652.836 158.924 653.578 159.484 653.578 161.066V165H654.544V160.856C654.544 159.148 653.746 158.042 651.968 158.042C650.834 158.042 650.008 158.588 649.574 159.4V154.794H648.608V164.986H649.574ZM655.993 161.612C655.993 163.67 657.449 165.168 659.437 165.168C661.425 165.168 662.881 163.67 662.881 161.612C662.881 159.54 661.425 158.042 659.437 158.042C657.449 158.042 655.993 159.54 655.993 161.612ZM656.973 161.598C656.973 160.03 657.981 158.91 659.437 158.91C660.879 158.91 661.901 160.03 661.901 161.598C661.901 163.194 660.879 164.3 659.437 164.3C657.981 164.3 656.973 163.194 656.973 161.598ZM665.392 165V161.458C665.392 159.932 666.176 158.924 667.562 158.924C668.682 158.924 669.396 159.484 669.396 161.066V165H670.362V160.856C670.362 159.148 669.592 158.042 667.73 158.042C666.75 158.042 665.854 158.532 665.406 159.4L665.266 158.224H664.426V165H665.392ZM675.129 165.168C676.725 165.168 677.775 164.398 678.139 162.97H677.215C676.963 163.866 676.249 164.342 675.143 164.342C673.687 164.342 672.819 163.39 672.749 161.738H678.139V161.262C678.139 159.344 676.893 158.042 675.059 158.042C673.127 158.042 671.811 159.498 671.811 161.612C671.811 163.74 673.141 165.168 675.129 165.168ZM675.059 158.868C676.333 158.868 677.173 159.736 677.173 161.038H672.777C672.945 159.708 673.785 158.868 675.059 158.868Z" fill="black"/>
<line x1="207" y1="190.5" x2="731" y2="190.5" stroke="#D8D8D8"/>
<line x1="207" y1="270.5" x2="731" y2="270.5" stroke="#D8D8D8"/>
<circle cx="240" cy="230" r="25"/>
<path d="M281.588 227.608C281.588 226.74 281.905 226.04 282.54 225.508C283.184 224.967 284.029 224.696 285.074 224.696C286.035 224.696 286.81 224.948 287.398 225.452C287.986 225.956 288.308 226.647 288.364 227.524H286.978C286.941 227.02 286.754 226.628 286.418 226.348C286.082 226.068 285.629 225.928 285.06 225.928C284.425 225.928 283.917 226.077 283.534 226.376C283.151 226.675 282.96 227.071 282.96 227.566C282.96 228.359 283.431 228.868 284.374 229.092L286.04 229.484C287.701 229.867 288.532 230.767 288.532 232.186C288.532 233.091 288.205 233.815 287.552 234.356C286.908 234.897 286.045 235.168 284.962 235.168C283.926 235.168 283.091 234.916 282.456 234.412C281.821 233.908 281.485 233.222 281.448 232.354H282.848C282.867 232.839 283.063 233.227 283.436 233.516C283.819 233.796 284.327 233.936 284.962 233.936C285.634 233.936 286.166 233.791 286.558 233.502C286.959 233.203 287.16 232.802 287.16 232.298C287.16 231.495 286.693 230.987 285.76 230.772L284.094 230.394C282.423 230.011 281.588 229.083 281.588 227.608ZM290.592 234.16C289.92 233.488 289.584 232.625 289.584 231.57C289.584 230.515 289.92 229.652 290.592 228.98C291.264 228.308 292.118 227.972 293.154 227.972C294.181 227.972 295.03 228.308 295.702 228.98C296.374 229.652 296.71 230.515 296.71 231.57C296.71 232.625 296.374 233.488 295.702 234.16C295.03 234.832 294.181 235.168 293.154 235.168C292.118 235.168 291.264 234.832 290.592 234.16ZM291.53 229.82C291.119 230.268 290.914 230.851 290.914 231.57C290.914 232.289 291.119 232.872 291.53 233.32C291.95 233.768 292.491 233.992 293.154 233.992C293.817 233.992 294.353 233.768 294.764 233.32C295.184 232.863 295.394 232.279 295.394 231.57C295.394 230.861 295.184 230.282 294.764 229.834C294.353 229.377 293.817 229.148 293.154 229.148C292.491 229.148 291.95 229.372 291.53 229.82ZM298.167 238.066V228.154H299.357L299.455 229.386C299.679 228.929 300.01 228.579 300.449 228.336C300.888 228.084 301.382 227.958 301.933 227.958C302.904 227.958 303.674 228.289 304.243 228.952C304.822 229.605 305.111 230.464 305.111 231.528C305.111 232.601 304.826 233.479 304.257 234.16C303.697 234.841 302.922 235.182 301.933 235.182C301.382 235.182 300.892 235.07 300.463 234.846C300.034 234.622 299.707 234.3 299.483 233.88V238.066H298.167ZM299.497 231.584C299.497 232.293 299.688 232.872 300.071 233.32C300.463 233.768 300.99 233.992 301.653 233.992C302.316 233.992 302.838 233.768 303.221 233.32C303.604 232.872 303.795 232.293 303.795 231.584C303.795 230.865 303.604 230.282 303.221 229.834C302.838 229.386 302.316 229.162 301.653 229.162C300.99 229.162 300.463 229.386 300.071 229.834C299.688 230.273 299.497 230.856 299.497 231.584ZM307.877 234.986H306.561V224.696H307.877V229.204C308.101 228.821 308.414 228.518 308.815 228.294C309.217 228.07 309.679 227.958 310.201 227.958C311.06 227.958 311.704 228.21 312.133 228.714C312.572 229.218 312.791 229.918 312.791 230.814V235H311.475V231.108C311.475 229.811 310.929 229.162 309.837 229.162C309.221 229.162 308.741 229.363 308.395 229.764C308.05 230.156 307.877 230.655 307.877 231.262V234.986ZM315.874 226.278C315.706 226.446 315.501 226.53 315.258 226.53C315.015 226.53 314.81 226.446 314.642 226.278C314.474 226.101 314.39 225.895 314.39 225.662C314.39 225.419 314.474 225.214 314.642 225.046C314.81 224.878 315.015 224.794 315.258 224.794C315.501 224.794 315.706 224.878 315.874 225.046C316.042 225.214 316.126 225.419 316.126 225.662C316.126 225.895 316.042 226.101 315.874 226.278ZM314.614 235V228.154H315.93V235H314.614ZM320.795 235.168C319.787 235.168 318.965 234.837 318.331 234.174C317.705 233.511 317.393 232.648 317.393 231.584C317.393 230.511 317.701 229.638 318.317 228.966C318.942 228.294 319.749 227.958 320.739 227.958C321.709 227.958 322.489 228.266 323.077 228.882C323.665 229.498 323.959 230.315 323.959 231.332V231.822L318.667 231.836C318.713 232.555 318.919 233.11 319.283 233.502C319.656 233.885 320.169 234.076 320.823 234.076C321.868 234.076 322.507 233.675 322.741 232.872H323.973C323.805 233.609 323.445 234.179 322.895 234.58C322.344 234.972 321.644 235.168 320.795 235.168ZM320.739 229.064C320.169 229.064 319.707 229.227 319.353 229.554C318.998 229.881 318.779 230.347 318.695 230.954H322.643C322.643 230.385 322.47 229.927 322.125 229.582C321.779 229.237 321.317 229.064 320.739 229.064ZM330.825 235H329.481V224.878H330.825L334.311 233.39L337.797 224.878H339.169V235H337.825V230.996C337.825 229.372 337.853 228.275 337.909 227.706L334.955 235H333.667L330.727 227.734C330.792 228.191 330.825 229.171 330.825 230.674V235ZM341.862 234.16C341.19 233.488 340.854 232.625 340.854 231.57C340.854 230.515 341.19 229.652 341.862 228.98C342.534 228.308 343.388 227.972 344.424 227.972C345.45 227.972 346.3 228.308 346.972 228.98C347.644 229.652 347.98 230.515 347.98 231.57C347.98 232.625 347.644 233.488 346.972 234.16C346.3 234.832 345.45 235.168 344.424 235.168C343.388 235.168 342.534 234.832 341.862 234.16ZM342.8 229.82C342.389 230.268 342.184 230.851 342.184 231.57C342.184 232.289 342.389 232.872 342.8 233.32C343.22 233.768 343.761 233.992 344.424 233.992C345.086 233.992 345.623 233.768 346.034 233.32C346.454 232.863 346.664 232.279 346.664 231.57C346.664 230.861 346.454 230.282 346.034 229.834C345.623 229.377 345.086 229.148 344.424 229.148C343.761 229.148 343.22 229.372 342.8 229.82ZM353.356 228.098V229.302H352.768C352.143 229.302 351.648 229.484 351.284 229.848C350.93 230.212 350.752 230.721 350.752 231.374V235H349.436V228.168H350.668L350.752 229.204C350.892 228.84 351.13 228.551 351.466 228.336C351.802 228.121 352.199 228.014 352.656 228.014C352.862 228.014 353.095 228.042 353.356 228.098ZM357.299 235.168C356.291 235.168 355.469 234.837 354.835 234.174C354.209 233.511 353.897 232.648 353.897 231.584C353.897 230.511 354.205 229.638 354.821 228.966C355.446 228.294 356.253 227.958 357.243 227.958C358.213 227.958 358.993 228.266 359.581 228.882C360.169 229.498 360.463 230.315 360.463 231.332V231.822L355.171 231.836C355.217 232.555 355.423 233.11 355.787 233.502C356.16 233.885 356.673 234.076 357.327 234.076C358.372 234.076 359.011 233.675 359.245 232.872H360.477C360.309 233.609 359.949 234.179 359.399 234.58C358.848 234.972 358.148 235.168 357.299 235.168ZM357.243 229.064C356.673 229.064 356.211 229.227 355.857 229.554C355.502 229.881 355.283 230.347 355.199 230.954H359.147C359.147 230.385 358.974 229.927 358.629 229.582C358.283 229.237 357.821 229.064 357.243 229.064ZM363.796 235H362.48V229.26H361.136V228.154H362.48V226.012H363.796V228.154H365.14V229.26H363.796V235Z" fill="black"/>
<path d="M463.532 235.144C464.516 235.144 465.308 234.712 465.668 233.98L465.776 235H466.472V231.244C466.472 229.708 465.488 229.036 464.144 229.036C462.716 229.036 461.756 229.792 461.756 230.968H462.512C462.512 230.188 463.112 229.732 464.12 229.732C464.972 229.732 465.656 230.092 465.656 231.232V231.424L463.736 231.58C462.38 231.688 461.564 232.36 461.564 233.428C461.564 234.448 462.296 235.144 463.532 235.144ZM463.724 234.472C462.932 234.472 462.404 234.112 462.404 233.404C462.404 232.756 462.848 232.276 463.94 232.18L465.656 232.048V232.36C465.656 233.62 464.948 234.472 463.724 234.472ZM468.854 235L468.938 233.812C469.346 234.712 470.15 235.144 471.122 235.144C472.814 235.144 473.822 233.848 473.822 232.108C473.822 230.356 472.838 229.036 471.146 229.036C470.162 229.036 469.37 229.468 468.962 230.32V226.252H468.134V235H468.854ZM468.974 232.084C468.974 230.752 469.718 229.78 470.99 229.78C472.25 229.78 472.982 230.752 472.982 232.084C472.982 233.428 472.25 234.388 470.99 234.388C469.718 234.388 468.974 233.428 468.974 232.084ZM474.733 232.108C474.733 233.932 475.849 235.144 477.493 235.144C478.813 235.144 479.845 234.364 480.121 233.176H479.281C479.053 233.92 478.357 234.4 477.493 234.4C476.317 234.4 475.549 233.476 475.549 232.096C475.549 230.668 476.377 229.768 477.553 229.768C478.357 229.768 479.053 230.212 479.269 231.016H480.097C479.869 229.816 478.885 229.036 477.541 229.036C475.849 229.036 474.733 230.284 474.733 232.108ZM483.584 232.36C483.584 233.332 484.292 233.932 485.432 233.932C486.344 233.932 487.088 233.524 487.424 232.84C487.496 233.56 487.988 233.932 488.816 233.932C490.028 233.932 490.892 232.72 490.892 231.028C490.892 228.244 488.828 226.252 485.96 226.252C483.164 226.252 481.016 228.4 481.016 231.196C481.016 234.028 483.152 236.176 485.96 236.176C487.112 236.176 488.156 235.804 489.02 235.12L488.684 234.628C487.916 235.252 486.968 235.576 485.96 235.576C483.524 235.576 481.664 233.68 481.664 231.196C481.664 228.748 483.536 226.852 485.96 226.852C488.456 226.852 490.244 228.592 490.244 231.028C490.244 232.42 489.692 233.368 488.876 233.368C488.384 233.368 488.132 233.116 488.132 232.648V230.356C488.132 229.06 487.328 228.328 485.972 228.328C484.64 228.328 483.764 229.036 483.764 230.092H484.484C484.484 229.384 485.024 228.964 485.936 228.964C486.896 228.964 487.364 229.42 487.364 230.344V230.524L485.6 230.656C484.316 230.764 483.584 231.412 483.584 232.36ZM484.352 232.348C484.352 231.688 484.844 231.316 485.78 231.232L487.364 231.112V231.376C487.364 232.576 486.692 233.296 485.6 233.296C484.796 233.296 484.352 232.96 484.352 232.348ZM491.866 231.928C491.866 233.512 492.874 234.82 494.53 234.82C495.526 234.82 496.33 234.34 496.726 233.524V234.904C496.726 236.116 495.934 236.92 494.746 236.92C493.702 236.92 492.982 236.368 492.802 235.432H491.974C492.202 236.836 493.246 237.676 494.734 237.676C496.438 237.676 497.542 236.548 497.542 234.82V229.192H496.822L496.738 230.356C496.366 229.504 495.598 229.036 494.59 229.036C492.886 229.036 491.866 230.344 491.866 231.928ZM492.694 231.916C492.694 230.74 493.414 229.768 494.662 229.768C495.934 229.768 496.654 230.68 496.654 231.916C496.654 233.164 495.91 234.076 494.65 234.076C493.426 234.076 492.694 233.104 492.694 231.916ZM500.098 235V231.4C500.098 230.512 500.686 229.792 501.658 229.792C502.534 229.792 503.098 230.368 503.098 231.352V235H503.914V231.412C503.914 230.512 504.49 229.78 505.462 229.78C506.35 229.78 506.902 230.368 506.902 231.364V235H507.706V231.196C507.706 229.852 506.878 229.036 505.618 229.036C504.682 229.036 503.974 229.516 503.71 230.272C503.434 229.516 502.75 229.036 501.838 229.036C501.022 229.036 500.374 229.408 500.086 230.02L499.99 229.192H499.27V235H500.098ZM511.04 235.144C512.024 235.144 512.816 234.712 513.176 233.98L513.284 235H513.98V231.244C513.98 229.708 512.996 229.036 511.652 229.036C510.224 229.036 509.264 229.792 509.264 230.968H510.02C510.02 230.188 510.62 229.732 511.628 229.732C512.48 229.732 513.164 230.092 513.164 231.232V231.424L511.244 231.58C509.888 231.688 509.072 232.36 509.072 233.428C509.072 234.448 509.804 235.144 511.04 235.144ZM511.232 234.472C510.44 234.472 509.912 234.112 509.912 233.404C509.912 232.756 510.356 232.276 511.448 232.18L513.164 232.048V232.36C513.164 233.62 512.456 234.472 511.232 234.472ZM516.049 227.596C516.385 227.596 516.673 227.32 516.673 226.984C516.673 226.648 516.385 226.36 516.049 226.36C515.713 226.36 515.437 226.648 515.437 226.984C515.437 227.32 515.713 227.596 516.049 227.596ZM515.641 235H516.469V229.192H515.641V235ZM519.06 235V226.252H518.232V235H519.06ZM521.529 235.132C521.937 235.132 522.285 234.796 522.285 234.4C522.285 233.992 521.937 233.644 521.529 233.644C521.121 233.644 520.773 233.992 520.773 234.4C520.773 234.796 521.121 235.132 521.529 235.132ZM523.19 232.108C523.19 233.932 524.306 235.144 525.95 235.144C527.27 235.144 528.302 234.364 528.578 233.176H527.738C527.51 233.92 526.814 234.4 525.95 234.4C524.774 234.4 524.006 233.476 524.006 232.096C524.006 230.668 524.834 229.768 526.01 229.768C526.814 229.768 527.51 230.212 527.726 231.016H528.554C528.326 229.816 527.342 229.036 525.998 229.036C524.306 229.036 523.19 230.284 523.19 232.108ZM529.425 232.096C529.425 233.86 530.673 235.144 532.377 235.144C534.081 235.144 535.329 233.86 535.329 232.096C535.329 230.32 534.081 229.036 532.377 229.036C530.673 229.036 529.425 230.32 529.425 232.096ZM530.265 232.084C530.265 230.74 531.129 229.78 532.377 229.78C533.613 229.78 534.489 230.74 534.489 232.084C534.489 233.452 533.613 234.4 532.377 234.4C531.129 234.4 530.265 233.452 530.265 232.084ZM537.481 235V231.4C537.481 230.512 538.069 229.792 539.041 229.792C539.917 229.792 540.481 230.368 540.481 231.352V235H541.297V231.412C541.297 230.512 541.873 229.78 542.845 229.78C543.733 229.78 544.285 230.368 544.285 231.364V235H545.089V231.196C545.089 229.852 544.261 229.036 543.001 229.036C542.065 229.036 541.357 229.516 541.093 230.272C540.817 229.516 540.133 229.036 539.221 229.036C538.405 229.036 537.757 229.408 537.469 230.02L537.373 229.192H536.653V235H537.481Z" fill="black"/>
<path d="M642.48 235.144C644.28 235.144 645.504 233.92 645.504 232.192C645.504 230.584 644.4 229.3 642.612 229.3C641.94 229.3 641.316 229.516 640.836 229.9L641.484 227.2H645.012V226.408H640.86L639.828 230.728L640.512 230.944C640.98 230.428 641.7 230.068 642.492 230.068C643.848 230.068 644.628 231.016 644.628 232.216C644.628 233.488 643.788 234.352 642.492 234.352C641.268 234.352 640.512 233.608 640.512 232.372H639.648C639.648 234.064 640.752 235.144 642.48 235.144ZM648.074 227.188V235H648.902V226.408H646.322V227.188H648.074ZM656.75 233.176V232.408H655.742V226.408H654.59L650.39 232.408V233.176H654.902V235H655.742V233.176H656.75ZM651.326 232.408L654.902 227.296V232.408H651.326ZM658.202 232.216H661.682V231.472H658.202V232.216ZM663.038 232.66C663.038 234.136 664.274 235.144 666.098 235.144C667.922 235.144 669.158 234.136 669.158 232.672C669.158 231.592 668.498 230.728 667.502 230.416C668.354 230.092 668.834 229.384 668.834 228.484C668.834 227.152 667.742 226.252 666.11 226.252C664.466 226.252 663.338 227.152 663.338 228.472C663.338 229.36 663.83 230.068 664.694 230.416C663.674 230.764 663.038 231.604 663.038 232.66ZM664.154 228.496C664.154 227.596 664.922 227.02 666.098 227.02C667.262 227.02 668.018 227.596 668.018 228.52C668.018 229.468 667.262 230.08 666.098 230.08C664.922 230.08 664.154 229.444 664.154 228.496ZM663.89 232.588C663.89 231.532 664.754 230.848 666.086 230.848C667.442 230.848 668.306 231.532 668.306 232.588C668.306 233.656 667.418 234.364 666.11 234.364C664.778 234.364 663.89 233.656 663.89 232.588ZM676.52 233.176V232.408H675.512V226.408H674.36L670.16 232.408V233.176H674.672V235H675.512V233.176H676.52ZM671.096 232.408L674.672 227.296V232.408H671.096ZM677.863 230.704C677.863 233.38 679.147 235.156 681.307 235.156C683.455 235.156 684.739 233.38 684.739 230.704C684.739 228.04 683.431 226.24 681.307 226.24C679.171 226.24 677.863 228.04 677.863 230.704ZM678.715 230.704C678.715 228.46 679.663 227.032 681.307 227.032C682.951 227.032 683.899 228.46 683.899 230.704C683.899 232.936 682.951 234.376 681.307 234.376C679.663 234.376 678.715 232.936 678.715 230.704ZM686.163 232.216H689.643V231.472H686.163V232.216ZM693.47 230.392C695.006 230.392 695.846 231.124 695.846 232.3C695.846 233.548 695.018 234.364 693.734 234.364C692.522 234.364 691.754 233.62 691.754 232.384H690.902C690.902 234.1 692.042 235.144 693.734 235.144C695.474 235.144 696.722 234.028 696.722 232.324C696.722 230.764 695.57 229.744 693.962 229.66L696.53 227.104V226.408H691.322V227.176H695.438L692.786 229.792V230.392H693.47ZM699.309 227.188V235H700.137V226.408H697.557V227.188H699.309ZM707.349 235V234.196H703.017L705.021 232.444C706.737 230.944 707.301 230.116 707.301 228.868C707.301 227.296 706.221 226.252 704.601 226.252C702.909 226.252 701.769 227.44 701.721 229.24H702.585C702.621 227.908 703.401 227.044 704.589 227.044C705.729 227.044 706.425 227.752 706.425 228.916C706.425 229.936 706.017 230.536 704.433 231.916L701.685 234.316V235H707.349Z" fill="black"/>
<line x1="207" y1="350.5" x2="731" y2="350.5" stroke="#D8D8D8"/>
<circle cx="25" cy="25" r="25" transform="matrix(-1 0 0 1 265 285)"/>
<path d="M283.296 315H281.98V304.696H283.296V315ZM288.187 315.168C287.179 315.168 286.358 314.837 285.723 314.174C285.098 313.511 284.785 312.648 284.785 311.584C284.785 310.511 285.093 309.638 285.709 308.966C286.335 308.294 287.142 307.958 288.131 307.958C289.102 307.958 289.881 308.266 290.469 308.882C291.057 309.498 291.351 310.315 291.351 311.332V311.822L286.059 311.836C286.106 312.555 286.311 313.11 286.675 313.502C287.049 313.885 287.562 314.076 288.215 314.076C289.261 314.076 289.9 313.675 290.133 312.872H291.365C291.197 313.609 290.838 314.179 290.287 314.58C289.737 314.972 289.037 315.168 288.187 315.168ZM288.131 309.064C287.562 309.064 287.1 309.227 286.745 309.554C286.391 309.881 286.171 310.347 286.087 310.954H290.035C290.035 310.385 289.863 309.927 289.517 309.582C289.172 309.237 288.71 309.064 288.131 309.064ZM298.217 315H296.873V304.878H298.217L301.703 313.39L305.189 304.878H306.561V315H305.217V310.996C305.217 309.372 305.245 308.275 305.301 307.706L302.347 315H301.059L298.119 307.734C298.185 308.191 298.217 309.171 298.217 310.674V315ZM310.696 315.168C309.968 315.168 309.394 314.981 308.974 314.608C308.564 314.225 308.358 313.721 308.358 313.096C308.358 312.471 308.578 311.971 309.016 311.598C309.464 311.215 310.094 310.991 310.906 310.926L313.062 310.758V310.562C313.062 309.526 312.526 309.008 311.452 309.008C310.902 309.008 310.472 309.125 310.164 309.358C309.866 309.591 309.716 309.913 309.716 310.324H308.568C308.568 309.615 308.834 309.045 309.366 308.616C309.908 308.177 310.622 307.958 311.508 307.958C312.386 307.958 313.076 308.191 313.58 308.658C314.094 309.125 314.35 309.806 314.35 310.702V315H313.23L313.09 313.894C312.913 314.286 312.605 314.599 312.166 314.832C311.737 315.056 311.247 315.168 310.696 315.168ZM311.074 314.146C311.7 314.146 312.19 313.959 312.544 313.586C312.899 313.203 313.076 312.69 313.076 312.046V311.682L311.326 311.822C310.234 311.925 309.688 312.335 309.688 313.054C309.688 313.409 309.81 313.679 310.052 313.866C310.295 314.053 310.636 314.146 311.074 314.146ZM317.995 315H316.679V309.26H315.335V308.154H316.679V306.012H317.995V308.154H319.339V309.26H317.995V315ZM320.004 311.584C320.004 310.511 320.312 309.638 320.928 308.966C321.553 308.294 322.365 307.958 323.364 307.958C324.223 307.958 324.932 308.187 325.492 308.644C326.061 309.092 326.407 309.699 326.528 310.464H325.212C325.1 310.035 324.881 309.708 324.554 309.484C324.237 309.251 323.854 309.134 323.406 309.134C322.781 309.134 322.272 309.358 321.88 309.806C321.497 310.245 321.306 310.833 321.306 311.57C321.306 312.307 321.488 312.895 321.852 313.334C322.225 313.773 322.725 313.992 323.35 313.992C323.817 313.992 324.213 313.88 324.54 313.656C324.876 313.423 325.105 313.101 325.226 312.69H326.542C326.411 313.437 326.052 314.039 325.464 314.496C324.876 314.944 324.171 315.168 323.35 315.168C322.342 315.168 321.53 314.841 320.914 314.188C320.307 313.535 320.004 312.667 320.004 311.584ZM329.247 314.986H327.931V304.696H329.247V309.204C329.471 308.821 329.783 308.518 330.185 308.294C330.586 308.07 331.048 307.958 331.571 307.958C332.429 307.958 333.073 308.21 333.503 308.714C333.941 309.218 334.161 309.918 334.161 310.814V315H332.845V311.108C332.845 309.811 332.299 309.162 331.207 309.162C330.591 309.162 330.11 309.363 329.765 309.764C329.419 310.156 329.247 310.655 329.247 311.262V314.986ZM337.358 315L335.118 308.154H336.476L337.61 311.71C337.778 312.261 337.918 312.802 338.03 313.334C338.114 312.867 338.263 312.326 338.478 311.71L339.626 308.154H340.97L342.104 311.71C342.262 312.195 342.412 312.737 342.552 313.334C342.664 312.811 342.808 312.27 342.986 311.71L344.134 308.154H345.506L343.168 315H341.922L340.732 311.332C340.517 310.679 340.372 310.147 340.298 309.736C340.232 310.035 340.083 310.571 339.85 311.346L338.66 315H337.358ZM349.273 315.168C348.265 315.168 347.444 314.837 346.809 314.174C346.184 313.511 345.871 312.648 345.871 311.584C345.871 310.511 346.179 309.638 346.795 308.966C347.421 308.294 348.228 307.958 349.217 307.958C350.188 307.958 350.967 308.266 351.555 308.882C352.143 309.498 352.437 310.315 352.437 311.332V311.822L347.145 311.836C347.192 312.555 347.397 313.11 347.761 313.502C348.135 313.885 348.648 314.076 349.301 314.076C350.347 314.076 350.986 313.675 351.219 312.872H352.451C352.283 313.609 351.924 314.179 351.373 314.58C350.823 314.972 350.123 315.168 349.273 315.168ZM349.217 309.064C348.648 309.064 348.186 309.227 347.831 309.554C347.477 309.881 347.257 310.347 347.173 310.954H351.121C351.121 310.385 350.949 309.927 350.603 309.582C350.258 309.237 349.796 309.064 349.217 309.064ZM353.347 313.012H354.607C354.607 313.357 354.728 313.633 354.971 313.838C355.223 314.034 355.568 314.132 356.007 314.132C356.464 314.132 356.819 314.043 357.071 313.866C357.332 313.689 357.463 313.441 357.463 313.124C357.463 312.881 357.393 312.69 357.253 312.55C357.113 312.401 356.87 312.284 356.525 312.2L355.321 311.92C354.126 311.631 353.529 310.996 353.529 310.016C353.529 309.391 353.767 308.891 354.243 308.518C354.719 308.145 355.34 307.958 356.105 307.958C356.852 307.958 357.449 308.154 357.897 308.546C358.354 308.929 358.592 309.447 358.611 310.1H357.351C357.332 309.755 357.211 309.484 356.987 309.288C356.763 309.083 356.455 308.98 356.063 308.98C355.652 308.98 355.335 309.069 355.111 309.246C354.887 309.414 354.775 309.657 354.775 309.974C354.775 310.431 355.111 310.744 355.783 310.912L356.987 311.206C357.584 311.346 358.023 311.561 358.303 311.85C358.583 312.139 358.723 312.536 358.723 313.04C358.723 313.684 358.471 314.202 357.967 314.594C357.463 314.977 356.8 315.168 355.979 315.168C355.176 315.168 354.537 314.972 354.061 314.58C353.585 314.188 353.347 313.665 353.347 313.012Z" fill="black"/>
<path d="M463.532 315.144C464.516 315.144 465.308 314.712 465.668 313.98L465.776 315H466.472V311.244C466.472 309.708 465.488 309.036 464.144 309.036C462.716 309.036 461.756 309.792 461.756 310.968H462.512C462.512 310.188 463.112 309.732 464.12 309.732C464.972 309.732 465.656 310.092 465.656 311.232V311.424L463.736 311.58C462.38 311.688 461.564 312.36 461.564 313.428C461.564 314.448 462.296 315.144 463.532 315.144ZM463.724 314.472C462.932 314.472 462.404 314.112 462.404 313.404C462.404 312.756 462.848 312.276 463.94 312.18L465.656 312.048V312.36C465.656 313.62 464.948 314.472 463.724 314.472ZM468.854 315L468.938 313.812C469.346 314.712 470.15 315.144 471.122 315.144C472.814 315.144 473.822 313.848 473.822 312.108C473.822 310.356 472.838 309.036 471.146 309.036C470.162 309.036 469.37 309.468 468.962 310.32V306.252H468.134V315H468.854ZM468.974 312.084C468.974 310.752 469.718 309.78 470.99 309.78C472.25 309.78 472.982 310.752 472.982 312.084C472.982 313.428 472.25 314.388 470.99 314.388C469.718 314.388 468.974 313.428 468.974 312.084ZM474.733 312.108C474.733 313.932 475.849 315.144 477.493 315.144C478.813 315.144 479.845 314.364 480.121 313.176H479.281C479.053 313.92 478.357 314.4 477.493 314.4C476.317 314.4 475.549 313.476 475.549 312.096C475.549 310.668 476.377 309.768 477.553 309.768C478.357 309.768 479.053 310.212 479.269 311.016H480.097C479.869 309.816 478.885 309.036 477.541 309.036C475.849 309.036 474.733 310.284 474.733 312.108ZM483.584 312.36C483.584 313.332 484.292 313.932 485.432 313.932C486.344 313.932 487.088 313.524 487.424 312.84C487.496 313.56 487.988 313.932 488.816 313.932C490.028 313.932 490.892 312.72 490.892 311.028C490.892 308.244 488.828 306.252 485.96 306.252C483.164 306.252 481.016 308.4 481.016 311.196C481.016 314.028 483.152 316.176 485.96 316.176C487.112 316.176 488.156 315.804 489.02 315.12L488.684 314.628C487.916 315.252 486.968 315.576 485.96 315.576C483.524 315.576 481.664 313.68 481.664 311.196C481.664 308.748 483.536 306.852 485.96 306.852C488.456 306.852 490.244 308.592 490.244 311.028C490.244 312.42 489.692 313.368 488.876 313.368C488.384 313.368 488.132 313.116 488.132 312.648V310.356C488.132 309.06 487.328 308.328 485.972 308.328C484.64 308.328 483.764 309.036 483.764 310.092H484.484C484.484 309.384 485.024 308.964 485.936 308.964C486.896 308.964 487.364 309.42 487.364 310.344V310.524L485.6 310.656C484.316 310.764 483.584 311.412 483.584 312.36ZM484.352 312.348C484.352 311.688 484.844 311.316 485.78 311.232L487.364 311.112V311.376C487.364 312.576 486.692 313.296 485.6 313.296C484.796 313.296 484.352 312.96 484.352 312.348ZM491.866 311.928C491.866 313.512 492.874 314.82 494.53 314.82C495.526 314.82 496.33 314.34 496.726 313.524V314.904C496.726 316.116 495.934 316.92 494.746 316.92C493.702 316.92 492.982 316.368 492.802 315.432H491.974C492.202 316.836 493.246 317.676 494.734 317.676C496.438 317.676 497.542 316.548 497.542 314.82V309.192H496.822L496.738 310.356C496.366 309.504 495.598 309.036 494.59 309.036C492.886 309.036 491.866 310.344 491.866 311.928ZM492.694 311.916C492.694 310.74 493.414 309.768 494.662 309.768C495.934 309.768 496.654 310.68 496.654 311.916C496.654 313.164 495.91 314.076 494.65 314.076C493.426 314.076 492.694 313.104 492.694 311.916ZM500.098 315V311.4C500.098 310.512 500.686 309.792 501.658 309.792C502.534 309.792 503.098 310.368 503.098 311.352V315H503.914V311.412C503.914 310.512 504.49 309.78 505.462 309.78C506.35 309.78 506.902 310.368 506.902 311.364V315H507.706V311.196C507.706 309.852 506.878 309.036 505.618 309.036C504.682 309.036 503.974 309.516 503.71 310.272C503.434 309.516 502.75 309.036 501.838 309.036C501.022 309.036 500.374 309.408 500.086 310.02L499.99 309.192H499.27V315H500.098ZM511.04 315.144C512.024 315.144 512.816 314.712 513.176 313.98L513.284 315H513.98V311.244C513.98 309.708 512.996 309.036 511.652 309.036C510.224 309.036 509.264 309.792 509.264 310.968H510.02C510.02 310.188 510.62 309.732 511.628 309.732C512.48 309.732 513.164 310.092 513.164 311.232V311.424L511.244 311.58C509.888 311.688 509.072 312.36 509.072 313.428C509.072 314.448 509.804 315.144 511.04 315.144ZM511.232 314.472C510.44 314.472 509.912 314.112 509.912 313.404C509.912 312.756 510.356 312.276 511.448 312.18L513.164 312.048V312.36C513.164 313.62 512.456 314.472 511.232 314.472ZM516.049 307.596C516.385 307.596 516.673 307.32 516.673 306.984C516.673 306.648 516.385 306.36 516.049 306.36C515.713 306.36 515.437 306.648 515.437 306.984C515.437 307.32 515.713 307.596 516.049 307.596ZM515.641 315H516.469V309.192H515.641V315ZM519.06 315V306.252H518.232V315H519.06ZM521.529 315.132C521.937 315.132 522.285 314.796 522.285 314.4C522.285 313.992 521.937 313.644 521.529 313.644C521.121 313.644 520.773 313.992 520.773 314.4C520.773 314.796 521.121 315.132 521.529 315.132ZM523.19 312.108C523.19 313.932 524.306 315.144 525.95 315.144C527.27 315.144 528.302 314.364 528.578 313.176H527.738C527.51 313.92 526.814 314.4 525.95 314.4C524.774 314.4 524.006 313.476 524.006 312.096C524.006 310.668 524.834 309.768 526.01 309.768C526.814 309.768 527.51 310.212 527.726 311.016H528.554C528.326 309.816 527.342 309.036 525.998 309.036C524.306 309.036 523.19 310.284 523.19 312.108ZM529.425 312.096C529.425 313.86 530.673 315.144 532.377 315.144C534.081 315.144 535.329 313.86 535.329 312.096C535.329 310.32 534.081 309.036 532.377 309.036C530.673 309.036 529.425 310.32 529.425 312.096ZM530.265 312.084C530.265 310.74 531.129 309.78 532.377 309.78C533.613 309.78 534.489 310.74 534.489 312.084C534.489 313.452 533.613 314.4 532.377 314.4C531.129 314.4 530.265 313.452 530.265 312.084ZM537.481 315V311.4C537.481 310.512 538.069 309.792 539.041 309.792C539.917 309.792 540.481 310.368 540.481 311.352V315H541.297V311.412C541.297 310.512 541.873 309.78 542.845 309.78C543.733 309.78 544.285 310.368 544.285 311.364V315H545.089V311.196C545.089 309.852 544.261 309.036 543.001 309.036C542.065 309.036 541.357 309.516 541.093 310.272C540.817 309.516 540.133 309.036 539.221 309.036C538.405 309.036 537.757 309.408 537.469 310.02L537.373 309.192H536.653V315H537.481Z" fill="black"/>
<path d="M642.48 315.144C644.28 315.144 645.504 313.92 645.504 312.192C645.504 310.584 644.4 309.3 642.612 309.3C641.94 309.3 641.316 309.516 640.836 309.9L641.484 307.2H645.012V306.408H640.86L639.828 310.728L640.512 310.944C640.98 310.428 641.7 310.068 642.492 310.068C643.848 310.068 644.628 311.016 644.628 312.216C644.628 313.488 643.788 314.352 642.492 314.352C641.268 314.352 640.512 313.608 640.512 312.372H639.648C639.648 314.064 640.752 315.144 642.48 315.144ZM648.074 307.188V315H648.902V306.408H646.322V307.188H648.074ZM656.75 313.176V312.408H655.742V306.408H654.59L650.39 312.408V313.176H654.902V315H655.742V313.176H656.75ZM651.326 312.408L654.902 307.296V312.408H651.326ZM658.202 312.216H661.682V311.472H658.202V312.216ZM663.038 312.66C663.038 314.136 664.274 315.144 666.098 315.144C667.922 315.144 669.158 314.136 669.158 312.672C669.158 311.592 668.498 310.728 667.502 310.416C668.354 310.092 668.834 309.384 668.834 308.484C668.834 307.152 667.742 306.252 666.11 306.252C664.466 306.252 663.338 307.152 663.338 308.472C663.338 309.36 663.83 310.068 664.694 310.416C663.674 310.764 663.038 311.604 663.038 312.66ZM664.154 308.496C664.154 307.596 664.922 307.02 666.098 307.02C667.262 307.02 668.018 307.596 668.018 308.52C668.018 309.468 667.262 310.08 666.098 310.08C664.922 310.08 664.154 309.444 664.154 308.496ZM663.89 312.588C663.89 311.532 664.754 310.848 666.086 310.848C667.442 310.848 668.306 311.532 668.306 312.588C668.306 313.656 667.418 314.364 666.11 314.364C664.778 314.364 663.89 313.656 663.89 312.588ZM675.377 312.096C676.193 311.004 676.457 310.308 676.457 309.312C676.457 307.584 675.101 306.252 673.373 306.252C671.657 306.252 670.325 307.548 670.325 309.3C670.325 310.98 671.513 312.288 673.301 312.288C673.709 312.288 674.081 312.216 674.477 312L672.221 315H673.229L675.377 312.096ZM675.593 309.3C675.593 310.596 674.681 311.532 673.373 311.532C672.101 311.532 671.189 310.596 671.189 309.3C671.189 307.992 672.101 307.044 673.373 307.044C674.681 307.044 675.593 307.992 675.593 309.3ZM677.664 310.704C677.664 313.38 678.948 315.156 681.108 315.156C683.256 315.156 684.54 313.38 684.54 310.704C684.54 308.04 683.232 306.24 681.108 306.24C678.972 306.24 677.664 308.04 677.664 310.704ZM678.516 310.704C678.516 308.46 679.464 307.032 681.108 307.032C682.752 307.032 683.7 308.46 683.7 310.704C683.7 312.936 682.752 314.376 681.108 314.376C679.464 314.376 678.516 312.936 678.516 310.704ZM685.963 312.216H689.443V311.472H685.963V312.216ZM695.768 312.096C696.584 311.004 696.848 310.308 696.848 309.312C696.848 307.584 695.492 306.252 693.764 306.252C692.048 306.252 690.716 307.548 690.716 309.3C690.716 310.98 691.904 312.288 693.692 312.288C694.1 312.288 694.472 312.216 694.868 312L692.612 315H693.62L695.768 312.096ZM695.984 309.3C695.984 310.596 695.072 311.532 693.764 311.532C692.492 311.532 691.58 310.596 691.58 309.3C691.58 307.992 692.492 307.044 693.764 307.044C695.072 307.044 695.984 307.992 695.984 309.3ZM698.98 309.3C698.176 310.404 697.9 311.1 697.9 312.096C697.9 313.812 699.256 315.144 700.984 315.144C702.7 315.144 704.032 313.86 704.032 312.096C704.032 310.416 702.844 309.108 701.056 309.108C700.66 309.108 700.288 309.192 699.88 309.396L702.136 306.408H701.128L698.98 309.3ZM698.776 312.108C698.776 310.8 699.676 309.864 700.984 309.864C702.256 309.864 703.168 310.8 703.168 312.108C703.168 313.416 702.256 314.364 700.984 314.364C699.676 314.364 698.776 313.416 698.776 312.108ZM707.638 310.392C709.174 310.392 710.014 311.124 710.014 312.3C710.014 313.548 709.186 314.364 707.902 314.364C706.69 314.364 705.922 313.62 705.922 312.384H705.07C705.07 314.1 706.21 315.144 707.902 315.144C709.642 315.144 710.89 314.028 710.89 312.324C710.89 310.764 709.738 309.744 708.13 309.66L710.698 307.104V306.408H705.49V307.176H709.606L706.954 309.792V310.392H707.638Z" fill="black"/>
<line x1="207" y1="428.5" x2="731" y2="428.5" stroke="#D8D8D8"/>
<circle cx="240" cy="388" r="25"/>
<path d="M282.596 393H281.168L284.864 382.878H286.39L290.1 393H288.658L287.748 390.48H283.492L282.596 393ZM285.452 385.062L283.912 389.29H287.342L285.788 385.062C285.704 384.829 285.648 384.633 285.62 384.474C285.592 384.614 285.536 384.81 285.452 385.062ZM292.538 393H291.222V386.154H292.412L292.552 387.204C292.766 386.812 293.074 386.509 293.476 386.294C293.886 386.07 294.334 385.958 294.82 385.958C295.697 385.958 296.355 386.21 296.794 386.714C297.232 387.209 297.452 387.909 297.452 388.814V393H296.136V389.108C296.136 387.811 295.585 387.162 294.484 387.162C293.877 387.162 293.401 387.363 293.056 387.764C292.71 388.165 292.538 388.702 292.538 389.374V393ZM302.018 393.168C301.038 393.168 300.259 392.841 299.68 392.188C299.111 391.525 298.826 390.662 298.826 389.598C298.826 388.525 299.116 387.652 299.694 386.98C300.282 386.299 301.076 385.958 302.074 385.958C302.606 385.958 303.078 386.07 303.488 386.294C303.908 386.518 304.235 386.84 304.468 387.26V382.696H305.77V393H304.594L304.482 391.754C304.258 392.211 303.932 392.561 303.502 392.804C303.073 393.047 302.578 393.168 302.018 393.168ZM300.716 391.306C301.099 391.754 301.622 391.978 302.284 391.978C302.947 391.978 303.474 391.754 303.866 391.306C304.258 390.858 304.454 390.275 304.454 389.556C304.454 388.847 304.258 388.268 303.866 387.82C303.474 387.372 302.947 387.148 302.284 387.148C301.622 387.148 301.099 387.372 300.716 387.82C300.343 388.259 300.156 388.837 300.156 389.556C300.156 390.275 300.343 390.858 300.716 391.306ZM307.011 396.066V394.988H307.893C308.266 394.988 308.565 394.927 308.789 394.806C309.013 394.685 309.199 394.423 309.349 394.022L309.587 393.364L306.829 386.154H308.215L310.203 391.67L312.233 386.154H313.591L310.357 394.54C310.123 395.119 309.829 395.539 309.475 395.8C309.129 396.071 308.691 396.206 308.159 396.206C307.785 396.206 307.403 396.159 307.011 396.066ZM318.106 385.608C318.106 384.74 318.423 384.04 319.058 383.508C319.702 382.967 320.546 382.696 321.592 382.696C322.553 382.696 323.328 382.948 323.916 383.452C324.504 383.956 324.826 384.647 324.882 385.524H323.496C323.458 385.02 323.272 384.628 322.936 384.348C322.6 384.068 322.147 383.928 321.578 383.928C320.943 383.928 320.434 384.077 320.052 384.376C319.669 384.675 319.478 385.071 319.478 385.566C319.478 386.359 319.949 386.868 320.892 387.092L322.558 387.484C324.219 387.867 325.05 388.767 325.05 390.186C325.05 391.091 324.723 391.815 324.07 392.356C323.426 392.897 322.562 393.168 321.48 393.168C320.444 393.168 319.608 392.916 318.974 392.412C318.339 391.908 318.003 391.222 317.966 390.354H319.366C319.384 390.839 319.58 391.227 319.954 391.516C320.336 391.796 320.845 391.936 321.48 391.936C322.152 391.936 322.684 391.791 323.076 391.502C323.477 391.203 323.678 390.802 323.678 390.298C323.678 389.495 323.211 388.987 322.278 388.772L320.612 388.394C318.941 388.011 318.106 387.083 318.106 385.608ZM327.866 393H326.55V386.154H327.726L327.852 387.05C328.029 386.714 328.295 386.448 328.65 386.252C329.014 386.056 329.429 385.958 329.896 385.958C330.96 385.958 331.683 386.42 332.066 387.344C332.224 386.915 332.5 386.579 332.892 386.336C333.284 386.084 333.746 385.958 334.278 385.958C335.062 385.958 335.678 386.187 336.126 386.644C336.574 387.101 336.798 387.727 336.798 388.52V393H335.51V388.842C335.51 388.31 335.37 387.895 335.09 387.596C334.819 387.297 334.45 387.148 333.984 387.148C333.489 387.148 333.088 387.311 332.78 387.638C332.481 387.965 332.332 388.399 332.332 388.94V393H331.03V388.828C331.03 388.296 330.894 387.885 330.624 387.596C330.353 387.307 329.984 387.162 329.518 387.162C329.014 387.162 328.612 387.325 328.314 387.652C328.015 387.969 327.866 388.399 327.866 388.94V393ZM339.882 384.278C339.714 384.446 339.509 384.53 339.266 384.53C339.023 384.53 338.818 384.446 338.65 384.278C338.482 384.101 338.398 383.895 338.398 383.662C338.398 383.419 338.482 383.214 338.65 383.046C338.818 382.878 339.023 382.794 339.266 382.794C339.509 382.794 339.714 382.878 339.882 383.046C340.05 383.214 340.134 383.419 340.134 383.662C340.134 383.895 340.05 384.101 339.882 384.278ZM338.622 393V386.154H339.938V393H338.622ZM343.78 393H342.464V387.26H341.12V386.154H342.464V384.012H343.78V386.154H345.124V387.26H343.78V393ZM347.622 392.986H346.306V382.696H347.622V387.204C347.846 386.821 348.158 386.518 348.56 386.294C348.961 386.07 349.423 385.958 349.946 385.958C350.804 385.958 351.448 386.21 351.878 386.714C352.316 387.218 352.536 387.918 352.536 388.814V393H351.22V389.108C351.22 387.811 350.674 387.162 349.582 387.162C348.966 387.162 348.485 387.363 348.14 387.764C347.794 388.156 347.622 388.655 347.622 389.262V392.986Z" fill="black"/>
<path d="M463.532 393.144C464.516 393.144 465.308 392.712 465.668 391.98L465.776 393H466.472V389.244C466.472 387.708 465.488 387.036 464.144 387.036C462.716 387.036 461.756 387.792 461.756 388.968H462.512C462.512 388.188 463.112 387.732 464.12 387.732C464.972 387.732 465.656 388.092 465.656 389.232V389.424L463.736 389.58C462.38 389.688 461.564 390.36 461.564 391.428C461.564 392.448 462.296 393.144 463.532 393.144ZM463.724 392.472C462.932 392.472 462.404 392.112 462.404 391.404C462.404 390.756 462.848 390.276 463.94 390.18L465.656 390.048V390.36C465.656 391.62 464.948 392.472 463.724 392.472ZM468.854 393L468.938 391.812C469.346 392.712 470.15 393.144 471.122 393.144C472.814 393.144 473.822 391.848 473.822 390.108C473.822 388.356 472.838 387.036 471.146 387.036C470.162 387.036 469.37 387.468 468.962 388.32V384.252H468.134V393H468.854ZM468.974 390.084C468.974 388.752 469.718 387.78 470.99 387.78C472.25 387.78 472.982 388.752 472.982 390.084C472.982 391.428 472.25 392.388 470.99 392.388C469.718 392.388 468.974 391.428 468.974 390.084ZM474.733 390.108C474.733 391.932 475.849 393.144 477.493 393.144C478.813 393.144 479.845 392.364 480.121 391.176H479.281C479.053 391.92 478.357 392.4 477.493 392.4C476.317 392.4 475.549 391.476 475.549 390.096C475.549 388.668 476.377 387.768 477.553 387.768C478.357 387.768 479.053 388.212 479.269 389.016H480.097C479.869 387.816 478.885 387.036 477.541 387.036C475.849 387.036 474.733 388.284 474.733 390.108ZM483.584 390.36C483.584 391.332 484.292 391.932 485.432 391.932C486.344 391.932 487.088 391.524 487.424 390.84C487.496 391.56 487.988 391.932 488.816 391.932C490.028 391.932 490.892 390.72 490.892 389.028C490.892 386.244 488.828 384.252 485.96 384.252C483.164 384.252 481.016 386.4 481.016 389.196C481.016 392.028 483.152 394.176 485.96 394.176C487.112 394.176 488.156 393.804 489.02 393.12L488.684 392.628C487.916 393.252 486.968 393.576 485.96 393.576C483.524 393.576 481.664 391.68 481.664 389.196C481.664 386.748 483.536 384.852 485.96 384.852C488.456 384.852 490.244 386.592 490.244 389.028C490.244 390.42 489.692 391.368 488.876 391.368C488.384 391.368 488.132 391.116 488.132 390.648V388.356C488.132 387.06 487.328 386.328 485.972 386.328C484.64 386.328 483.764 387.036 483.764 388.092H484.484C484.484 387.384 485.024 386.964 485.936 386.964C486.896 386.964 487.364 387.42 487.364 388.344V388.524L485.6 388.656C484.316 388.764 483.584 389.412 483.584 390.36ZM484.352 390.348C484.352 389.688 484.844 389.316 485.78 389.232L487.364 389.112V389.376C487.364 390.576 486.692 391.296 485.6 391.296C484.796 391.296 484.352 390.96 484.352 390.348ZM491.866 389.928C491.866 391.512 492.874 392.82 494.53 392.82C495.526 392.82 496.33 392.34 496.726 391.524V392.904C496.726 394.116 495.934 394.92 494.746 394.92C493.702 394.92 492.982 394.368 492.802 393.432H491.974C492.202 394.836 493.246 395.676 494.734 395.676C496.438 395.676 497.542 394.548 497.542 392.82V387.192H496.822L496.738 388.356C496.366 387.504 495.598 387.036 494.59 387.036C492.886 387.036 491.866 388.344 491.866 389.928ZM492.694 389.916C492.694 388.74 493.414 387.768 494.662 387.768C495.934 387.768 496.654 388.68 496.654 389.916C496.654 391.164 495.91 392.076 494.65 392.076C493.426 392.076 492.694 391.104 492.694 389.916ZM500.098 393V389.4C500.098 388.512 500.686 387.792 501.658 387.792C502.534 387.792 503.098 388.368 503.098 389.352V393H503.914V389.412C503.914 388.512 504.49 387.78 505.462 387.78C506.35 387.78 506.902 388.368 506.902 389.364V393H507.706V389.196C507.706 387.852 506.878 387.036 505.618 387.036C504.682 387.036 503.974 387.516 503.71 388.272C503.434 387.516 502.75 387.036 501.838 387.036C501.022 387.036 500.374 387.408 500.086 388.02L499.99 387.192H499.27V393H500.098ZM511.04 393.144C512.024 393.144 512.816 392.712 513.176 391.98L513.284 393H513.98V389.244C513.98 387.708 512.996 387.036 511.652 387.036C510.224 387.036 509.264 387.792 509.264 388.968H510.02C510.02 388.188 510.62 387.732 511.628 387.732C512.48 387.732 513.164 388.092 513.164 389.232V389.424L511.244 389.58C509.888 389.688 509.072 390.36 509.072 391.428C509.072 392.448 509.804 393.144 511.04 393.144ZM511.232 392.472C510.44 392.472 509.912 392.112 509.912 391.404C509.912 390.756 510.356 390.276 511.448 390.18L513.164 390.048V390.36C513.164 391.62 512.456 392.472 511.232 392.472ZM516.049 385.596C516.385 385.596 516.673 385.32 516.673 384.984C516.673 384.648 516.385 384.36 516.049 384.36C515.713 384.36 515.437 384.648 515.437 384.984C515.437 385.32 515.713 385.596 516.049 385.596ZM515.641 393H516.469V387.192H515.641V393ZM519.06 393V384.252H518.232V393H519.06ZM521.529 393.132C521.937 393.132 522.285 392.796 522.285 392.4C522.285 391.992 521.937 391.644 521.529 391.644C521.121 391.644 520.773 391.992 520.773 392.4C520.773 392.796 521.121 393.132 521.529 393.132ZM523.19 390.108C523.19 391.932 524.306 393.144 525.95 393.144C527.27 393.144 528.302 392.364 528.578 391.176H527.738C527.51 391.92 526.814 392.4 525.95 392.4C524.774 392.4 524.006 391.476 524.006 390.096C524.006 388.668 524.834 387.768 526.01 387.768C526.814 387.768 527.51 388.212 527.726 389.016H528.554C528.326 387.816 527.342 387.036 525.998 387.036C524.306 387.036 523.19 388.284 523.19 390.108ZM529.425 390.096C529.425 391.86 530.673 393.144 532.377 393.144C534.081 393.144 535.329 391.86 535.329 390.096C535.329 388.32 534.081 387.036 532.377 387.036C530.673 387.036 529.425 388.32 529.425 390.096ZM530.265 390.084C530.265 388.74 531.129 387.78 532.377 387.78C533.613 387.78 534.489 388.74 534.489 390.084C534.489 391.452 533.613 392.4 532.377 392.4C531.129 392.4 530.265 391.452 530.265 390.084ZM537.481 393V389.4C537.481 388.512 538.069 387.792 539.041 387.792C539.917 387.792 540.481 388.368 540.481 389.352V393H541.297V389.412C541.297 388.512 541.873 387.78 542.845 387.78C543.733 387.78 544.285 388.368 544.285 389.364V393H545.089V389.196C545.089 387.852 544.261 387.036 543.001 387.036C542.065 387.036 541.357 387.516 541.093 388.272C540.817 387.516 540.133 387.036 539.221 387.036C538.405 387.036 537.757 387.408 537.469 388.02L537.373 387.192H536.653V393H537.481Z" fill="black"/>
<path d="M642.48 393.144C644.28 393.144 645.504 391.92 645.504 390.192C645.504 388.584 644.4 387.3 642.612 387.3C641.94 387.3 641.316 387.516 640.836 387.9L641.484 385.2H645.012V384.408H640.86L639.828 388.728L640.512 388.944C640.98 388.428 641.7 388.068 642.492 388.068C643.848 388.068 644.628 389.016 644.628 390.216C644.628 391.488 643.788 392.352 642.492 392.352C641.268 392.352 640.512 391.608 640.512 390.372H639.648C639.648 392.064 640.752 393.144 642.48 393.144ZM648.074 385.188V393H648.902V384.408H646.322V385.188H648.074ZM656.75 391.176V390.408H655.742V384.408H654.59L650.39 390.408V391.176H654.902V393H655.742V391.176H656.75ZM651.326 390.408L654.902 385.296V390.408H651.326ZM658.202 390.216H661.682V389.472H658.202V390.216ZM663.038 390.66C663.038 392.136 664.274 393.144 666.098 393.144C667.922 393.144 669.158 392.136 669.158 390.672C669.158 389.592 668.498 388.728 667.502 388.416C668.354 388.092 668.834 387.384 668.834 386.484C668.834 385.152 667.742 384.252 666.11 384.252C664.466 384.252 663.338 385.152 663.338 386.472C663.338 387.36 663.83 388.068 664.694 388.416C663.674 388.764 663.038 389.604 663.038 390.66ZM664.154 386.496C664.154 385.596 664.922 385.02 666.098 385.02C667.262 385.02 668.018 385.596 668.018 386.52C668.018 387.468 667.262 388.08 666.098 388.08C664.922 388.08 664.154 387.444 664.154 386.496ZM663.89 390.588C663.89 389.532 664.754 388.848 666.086 388.848C667.442 388.848 668.306 389.532 668.306 390.588C668.306 391.656 667.418 392.364 666.11 392.364C664.778 392.364 663.89 391.656 663.89 390.588ZM675.377 390.096C676.193 389.004 676.457 388.308 676.457 387.312C676.457 385.584 675.101 384.252 673.373 384.252C671.657 384.252 670.325 385.548 670.325 387.3C670.325 388.98 671.513 390.288 673.301 390.288C673.709 390.288 674.081 390.216 674.477 390L672.221 393H673.229L675.377 390.096ZM675.593 387.3C675.593 388.596 674.681 389.532 673.373 389.532C672.101 389.532 671.189 388.596 671.189 387.3C671.189 385.992 672.101 385.044 673.373 385.044C674.681 385.044 675.593 385.992 675.593 387.3ZM682.608 390.096C683.424 389.004 683.688 388.308 683.688 387.312C683.688 385.584 682.332 384.252 680.604 384.252C678.888 384.252 677.556 385.548 677.556 387.3C677.556 388.98 678.744 390.288 680.532 390.288C680.94 390.288 681.312 390.216 681.708 390L679.452 393H680.46L682.608 390.096ZM682.824 387.3C682.824 388.596 681.912 389.532 680.604 389.532C679.332 389.532 678.42 388.596 678.42 387.3C678.42 385.992 679.332 385.044 680.604 385.044C681.912 385.044 682.824 385.992 682.824 387.3ZM685.002 390.216H688.482V389.472H685.002V390.216ZM688.995 384.408V385.2H693.963L690.567 393H691.455L694.839 385.2V384.408H688.995ZM698.203 393.144C700.003 393.144 701.227 391.92 701.227 390.192C701.227 388.584 700.123 387.3 698.335 387.3C697.663 387.3 697.039 387.516 696.559 387.9L697.207 385.2H700.735V384.408H696.583L695.551 388.728L696.235 388.944C696.703 388.428 697.423 388.068 698.215 388.068C699.571 388.068 700.351 389.016 700.351 390.216C700.351 391.488 699.511 392.352 698.215 392.352C696.991 392.352 696.235 391.608 696.235 390.372H695.371C695.371 392.064 696.475 393.144 698.203 393.144ZM702.331 390.66C702.331 392.136 703.567 393.144 705.391 393.144C707.215 393.144 708.451 392.136 708.451 390.672C708.451 389.592 707.791 388.728 706.795 388.416C707.647 388.092 708.127 387.384 708.127 386.484C708.127 385.152 707.035 384.252 705.403 384.252C703.759 384.252 702.631 385.152 702.631 386.472C702.631 387.36 703.123 388.068 703.987 388.416C702.967 388.764 702.331 389.604 702.331 390.66ZM703.447 386.496C703.447 385.596 704.215 385.02 705.391 385.02C706.555 385.02 707.311 385.596 707.311 386.52C707.311 387.468 706.555 388.08 705.391 388.08C704.215 388.08 703.447 387.444 703.447 386.496ZM703.183 390.588C703.183 389.532 704.047 388.848 705.379 388.848C706.735 388.848 707.599 389.532 707.599 390.588C707.599 391.656 706.711 392.364 705.403 392.364C704.071 392.364 703.183 391.656 703.183 390.588Z" fill="black"/>
<circle cx="240" cy="468" r="25"/>
<path d="M281.28 470.186V469.682H282.61V470.186C282.61 470.699 282.75 471.115 283.03 471.432C283.319 471.74 283.735 471.894 284.276 471.894C284.836 471.894 285.251 471.74 285.522 471.432C285.793 471.124 285.928 470.695 285.928 470.144V462.878H287.3V470.2C287.3 471.105 287.02 471.829 286.46 472.37C285.909 472.902 285.181 473.168 284.276 473.168C283.333 473.168 282.596 472.897 282.064 472.356C281.541 471.805 281.28 471.082 281.28 470.186ZM289.922 472.16C289.25 471.488 288.914 470.625 288.914 469.57C288.914 468.515 289.25 467.652 289.922 466.98C290.594 466.308 291.448 465.972 292.484 465.972C293.511 465.972 294.36 466.308 295.032 466.98C295.704 467.652 296.04 468.515 296.04 469.57C296.04 470.625 295.704 471.488 295.032 472.16C294.36 472.832 293.511 473.168 292.484 473.168C291.448 473.168 290.594 472.832 289.922 472.16ZM290.86 467.82C290.449 468.268 290.244 468.851 290.244 469.57C290.244 470.289 290.449 470.872 290.86 471.32C291.28 471.768 291.821 471.992 292.484 471.992C293.147 471.992 293.683 471.768 294.094 471.32C294.514 470.863 294.724 470.279 294.724 469.57C294.724 468.861 294.514 468.282 294.094 467.834C293.683 467.377 293.147 467.148 292.484 467.148C291.821 467.148 291.28 467.372 290.86 467.82ZM298.813 472.986H297.497V462.696H298.813V467.204C299.037 466.821 299.35 466.518 299.751 466.294C300.152 466.07 300.614 465.958 301.137 465.958C301.996 465.958 302.64 466.21 303.069 466.714C303.508 467.218 303.727 467.918 303.727 468.814V473H302.411V469.108C302.411 467.811 301.865 467.162 300.773 467.162C300.157 467.162 299.676 467.363 299.331 467.764C298.986 468.156 298.813 468.655 298.813 469.262V472.986ZM306.866 473H305.55V466.154H306.74L306.88 467.204C307.094 466.812 307.402 466.509 307.804 466.294C308.214 466.07 308.662 465.958 309.148 465.958C310.025 465.958 310.683 466.21 311.122 466.714C311.56 467.209 311.78 467.909 311.78 468.814V473H310.464V469.108C310.464 467.811 309.913 467.162 308.812 467.162C308.205 467.162 307.729 467.363 307.384 467.764C307.038 468.165 306.866 468.702 306.866 469.374V473ZM316.759 470.186V469.682H318.089V470.186C318.089 470.699 318.229 471.115 318.509 471.432C318.798 471.74 319.213 471.894 319.755 471.894C320.315 471.894 320.73 471.74 321.001 471.432C321.271 471.124 321.407 470.695 321.407 470.144V462.878H322.779V470.2C322.779 471.105 322.499 471.829 321.939 472.37C321.388 472.902 320.66 473.168 319.755 473.168C318.812 473.168 318.075 472.897 317.543 472.356C317.02 471.805 316.759 471.082 316.759 470.186ZM326.843 473.168C326.115 473.168 325.541 472.981 325.121 472.608C324.71 472.225 324.505 471.721 324.505 471.096C324.505 470.471 324.724 469.971 325.163 469.598C325.611 469.215 326.241 468.991 327.053 468.926L329.209 468.758V468.562C329.209 467.526 328.672 467.008 327.599 467.008C327.048 467.008 326.619 467.125 326.311 467.358C326.012 467.591 325.863 467.913 325.863 468.324H324.715C324.715 467.615 324.981 467.045 325.513 466.616C326.054 466.177 326.768 465.958 327.655 465.958C328.532 465.958 329.223 466.191 329.727 466.658C330.24 467.125 330.497 467.806 330.497 468.702V473H329.377L329.237 471.894C329.059 472.286 328.751 472.599 328.313 472.832C327.883 473.056 327.393 473.168 326.843 473.168ZM327.221 472.146C327.846 472.146 328.336 471.959 328.691 471.586C329.045 471.203 329.223 470.69 329.223 470.046V469.682L327.473 469.822C326.381 469.925 325.835 470.335 325.835 471.054C325.835 471.409 325.956 471.679 326.199 471.866C326.441 472.053 326.782 472.146 327.221 472.146ZM331.871 469.584C331.871 468.511 332.179 467.638 332.795 466.966C333.421 466.294 334.233 465.958 335.231 465.958C336.09 465.958 336.799 466.187 337.359 466.644C337.929 467.092 338.274 467.699 338.395 468.464H337.079C336.967 468.035 336.748 467.708 336.421 467.484C336.104 467.251 335.721 467.134 335.273 467.134C334.648 467.134 334.139 467.358 333.747 467.806C333.365 468.245 333.173 468.833 333.173 469.57C333.173 470.307 333.355 470.895 333.719 471.334C334.093 471.773 334.592 471.992 335.217 471.992C335.684 471.992 336.081 471.88 336.407 471.656C336.743 471.423 336.972 471.101 337.093 470.69H338.409C338.279 471.437 337.919 472.039 337.331 472.496C336.743 472.944 336.039 473.168 335.217 473.168C334.209 473.168 333.397 472.841 332.781 472.188C332.175 471.535 331.871 470.667 331.871 469.584ZM341.142 473H339.826V462.696H341.142V469.374L344.18 466.154H345.832L343.214 468.884L345.818 473H344.306L342.304 469.836L341.142 471.054V473Z" fill="black"/>
<path d="M463.532 473.144C464.516 473.144 465.308 472.712 465.668 471.98L465.776 473H466.472V469.244C466.472 467.708 465.488 467.036 464.144 467.036C462.716 467.036 461.756 467.792 461.756 468.968H462.512C462.512 468.188 463.112 467.732 464.12 467.732C464.972 467.732 465.656 468.092 465.656 469.232V469.424L463.736 469.58C462.38 469.688 461.564 470.36 461.564 471.428C461.564 472.448 462.296 473.144 463.532 473.144ZM463.724 472.472C462.932 472.472 462.404 472.112 462.404 471.404C462.404 470.756 462.848 470.276 463.94 470.18L465.656 470.048V470.36C465.656 471.62 464.948 472.472 463.724 472.472ZM468.854 473L468.938 471.812C469.346 472.712 470.15 473.144 471.122 473.144C472.814 473.144 473.822 471.848 473.822 470.108C473.822 468.356 472.838 467.036 471.146 467.036C470.162 467.036 469.37 467.468 468.962 468.32V464.252H468.134V473H468.854ZM468.974 470.084C468.974 468.752 469.718 467.78 470.99 467.78C472.25 467.78 472.982 468.752 472.982 470.084C472.982 471.428 472.25 472.388 470.99 472.388C469.718 472.388 468.974 471.428 468.974 470.084ZM474.733 470.108C474.733 471.932 475.849 473.144 477.493 473.144C478.813 473.144 479.845 472.364 480.121 471.176H479.281C479.053 471.92 478.357 472.4 477.493 472.4C476.317 472.4 475.549 471.476 475.549 470.096C475.549 468.668 476.377 467.768 477.553 467.768C478.357 467.768 479.053 468.212 479.269 469.016H480.097C479.869 467.816 478.885 467.036 477.541 467.036C475.849 467.036 474.733 468.284 474.733 470.108ZM483.584 470.36C483.584 471.332 484.292 471.932 485.432 471.932C486.344 471.932 487.088 471.524 487.424 470.84C487.496 471.56 487.988 471.932 488.816 471.932C490.028 471.932 490.892 470.72 490.892 469.028C490.892 466.244 488.828 464.252 485.96 464.252C483.164 464.252 481.016 466.4 481.016 469.196C481.016 472.028 483.152 474.176 485.96 474.176C487.112 474.176 488.156 473.804 489.02 473.12L488.684 472.628C487.916 473.252 486.968 473.576 485.96 473.576C483.524 473.576 481.664 471.68 481.664 469.196C481.664 466.748 483.536 464.852 485.96 464.852C488.456 464.852 490.244 466.592 490.244 469.028C490.244 470.42 489.692 471.368 488.876 471.368C488.384 471.368 488.132 471.116 488.132 470.648V468.356C488.132 467.06 487.328 466.328 485.972 466.328C484.64 466.328 483.764 467.036 483.764 468.092H484.484C484.484 467.384 485.024 466.964 485.936 466.964C486.896 466.964 487.364 467.42 487.364 468.344V468.524L485.6 468.656C484.316 468.764 483.584 469.412 483.584 470.36ZM484.352 470.348C484.352 469.688 484.844 469.316 485.78 469.232L487.364 469.112V469.376C487.364 470.576 486.692 471.296 485.6 471.296C484.796 471.296 484.352 470.96 484.352 470.348ZM491.866 469.928C491.866 471.512 492.874 472.82 494.53 472.82C495.526 472.82 496.33 472.34 496.726 471.524V472.904C496.726 474.116 495.934 474.92 494.746 474.92C493.702 474.92 492.982 474.368 492.802 473.432H491.974C492.202 474.836 493.246 475.676 494.734 475.676C496.438 475.676 497.542 474.548 497.542 472.82V467.192H496.822L496.738 468.356C496.366 467.504 495.598 467.036 494.59 467.036C492.886 467.036 491.866 468.344 491.866 469.928ZM492.694 469.916C492.694 468.74 493.414 467.768 494.662 467.768C495.934 467.768 496.654 468.68 496.654 469.916C496.654 471.164 495.91 472.076 494.65 472.076C493.426 472.076 492.694 471.104 492.694 469.916ZM500.098 473V469.4C500.098 468.512 500.686 467.792 501.658 467.792C502.534 467.792 503.098 468.368 503.098 469.352V473H503.914V469.412C503.914 468.512 504.49 467.78 505.462 467.78C506.35 467.78 506.902 468.368 506.902 469.364V473H507.706V469.196C507.706 467.852 506.878 467.036 505.618 467.036C504.682 467.036 503.974 467.516 503.71 468.272C503.434 467.516 502.75 467.036 501.838 467.036C501.022 467.036 500.374 467.408 500.086 468.02L499.99 467.192H499.27V473H500.098ZM511.04 473.144C512.024 473.144 512.816 472.712 513.176 471.98L513.284 473H513.98V469.244C513.98 467.708 512.996 467.036 511.652 467.036C510.224 467.036 509.264 467.792 509.264 468.968H510.02C510.02 468.188 510.62 467.732 511.628 467.732C512.48 467.732 513.164 468.092 513.164 469.232V469.424L511.244 469.58C509.888 469.688 509.072 470.36 509.072 471.428C509.072 472.448 509.804 473.144 511.04 473.144ZM511.232 472.472C510.44 472.472 509.912 472.112 509.912 471.404C509.912 470.756 510.356 470.276 511.448 470.18L513.164 470.048V470.36C513.164 471.62 512.456 472.472 511.232 472.472ZM516.049 465.596C516.385 465.596 516.673 465.32 516.673 464.984C516.673 464.648 516.385 464.36 516.049 464.36C515.713 464.36 515.437 464.648 515.437 464.984C515.437 465.32 515.713 465.596 516.049 465.596ZM515.641 473H516.469V467.192H515.641V473ZM519.06 473V464.252H518.232V473H519.06ZM521.529 473.132C521.937 473.132 522.285 472.796 522.285 472.4C522.285 471.992 521.937 471.644 521.529 471.644C521.121 471.644 520.773 471.992 520.773 472.4C520.773 472.796 521.121 473.132 521.529 473.132ZM523.19 470.108C523.19 471.932 524.306 473.144 525.95 473.144C527.27 473.144 528.302 472.364 528.578 471.176H527.738C527.51 471.92 526.814 472.4 525.95 472.4C524.774 472.4 524.006 471.476 524.006 470.096C524.006 468.668 524.834 467.768 526.01 467.768C526.814 467.768 527.51 468.212 527.726 469.016H528.554C528.326 467.816 527.342 467.036 525.998 467.036C524.306 467.036 523.19 468.284 523.19 470.108ZM529.425 470.096C529.425 471.86 530.673 473.144 532.377 473.144C534.081 473.144 535.329 471.86 535.329 470.096C535.329 468.32 534.081 467.036 532.377 467.036C530.673 467.036 529.425 468.32 529.425 470.096ZM530.265 470.084C530.265 468.74 531.129 467.78 532.377 467.78C533.613 467.78 534.489 468.74 534.489 470.084C534.489 471.452 533.613 472.4 532.377 472.4C531.129 472.4 530.265 471.452 530.265 470.084ZM537.481 473V469.4C537.481 468.512 538.069 467.792 539.041 467.792C539.917 467.792 540.481 468.368 540.481 469.352V473H541.297V469.412C541.297 468.512 541.873 467.78 542.845 467.78C543.733 467.78 544.285 468.368 544.285 469.364V473H545.089V469.196C545.089 467.852 544.261 467.036 543.001 467.036C542.065 467.036 541.357 467.516 541.093 468.272C540.817 467.516 540.133 467.036 539.221 467.036C538.405 467.036 537.757 467.408 537.469 468.02L537.373 467.192H536.653V473H537.481Z" fill="black"/>
<path d="M642.48 473.144C644.28 473.144 645.504 471.92 645.504 470.192C645.504 468.584 644.4 467.3 642.612 467.3C641.94 467.3 641.316 467.516 640.836 467.9L641.484 465.2H645.012V464.408H640.86L639.828 468.728L640.512 468.944C640.98 468.428 641.7 468.068 642.492 468.068C643.848 468.068 644.628 469.016 644.628 470.216C644.628 471.488 643.788 472.352 642.492 472.352C641.268 472.352 640.512 471.608 640.512 470.372H639.648C639.648 472.064 640.752 473.144 642.48 473.144ZM648.074 465.188V473H648.902V464.408H646.322V465.188H648.074ZM656.75 471.176V470.408H655.742V464.408H654.59L650.39 470.408V471.176H654.902V473H655.742V471.176H656.75ZM651.326 470.408L654.902 465.296V470.408H651.326ZM658.202 470.216H661.682V469.472H658.202V470.216ZM663.038 470.66C663.038 472.136 664.274 473.144 666.098 473.144C667.922 473.144 669.158 472.136 669.158 470.672C669.158 469.592 668.498 468.728 667.502 468.416C668.354 468.092 668.834 467.384 668.834 466.484C668.834 465.152 667.742 464.252 666.11 464.252C664.466 464.252 663.338 465.152 663.338 466.472C663.338 467.36 663.83 468.068 664.694 468.416C663.674 468.764 663.038 469.604 663.038 470.66ZM664.154 466.496C664.154 465.596 664.922 465.02 666.098 465.02C667.262 465.02 668.018 465.596 668.018 466.52C668.018 467.468 667.262 468.08 666.098 468.08C664.922 468.08 664.154 467.444 664.154 466.496ZM663.89 470.588C663.89 469.532 664.754 468.848 666.086 468.848C667.442 468.848 668.306 469.532 668.306 470.588C668.306 471.656 667.418 472.364 666.11 472.364C664.778 472.364 663.89 471.656 663.89 470.588ZM676.52 471.176V470.408H675.512V464.408H674.36L670.16 470.408V471.176H674.672V473H675.512V471.176H676.52ZM671.096 470.408L674.672 465.296V470.408H671.096ZM677.863 468.704C677.863 471.38 679.147 473.156 681.307 473.156C683.455 473.156 684.739 471.38 684.739 468.704C684.739 466.04 683.431 464.24 681.307 464.24C679.171 464.24 677.863 466.04 677.863 468.704ZM678.715 468.704C678.715 466.46 679.663 465.032 681.307 465.032C682.951 465.032 683.899 466.46 683.899 468.704C683.899 470.936 682.951 472.376 681.307 472.376C679.663 472.376 678.715 470.936 678.715 468.704ZM686.163 470.216H689.643V469.472H686.163V470.216ZM693.47 468.392C695.006 468.392 695.846 469.124 695.846 470.3C695.846 471.548 695.018 472.364 693.734 472.364C692.522 472.364 691.754 471.62 691.754 470.384H690.902C690.902 472.1 692.042 473.144 693.734 473.144C695.474 473.144 696.722 472.028 696.722 470.324C696.722 468.764 695.57 467.744 693.962 467.66L696.53 465.104V464.408H691.322V465.176H695.438L692.786 467.792V468.392H693.47ZM697.573 464.408V465.2H702.541L699.145 473H700.033L703.417 465.2V464.408H697.573ZM706.781 473.144C708.581 473.144 709.805 471.92 709.805 470.192C709.805 468.584 708.701 467.3 706.913 467.3C706.241 467.3 705.617 467.516 705.137 467.9L705.785 465.2H709.313V464.408H705.161L704.129 468.728L704.813 468.944C705.281 468.428 706.001 468.068 706.793 468.068C708.149 468.068 708.929 469.016 708.929 470.216C708.929 471.488 708.089 472.352 706.793 472.352C705.569 472.352 704.813 471.608 704.813 470.372H703.949C703.949 472.064 705.053 473.144 706.781 473.144Z" fill="black"/>
<rect x="29.5" y="191.5" width="141" height="29" rx="14.5" stroke="#D8D8D8"/>
<path d="M45.59 210V204.04L49.54 210H50.25V202.84H49.54V208.8L45.6 202.84H44.87V210H45.59ZM53.2389 210.12C54.0589 210.12 54.7189 209.76 55.0189 209.15L55.1089 210H55.6889V206.87C55.6889 205.59 54.8689 205.03 53.7489 205.03C52.5589 205.03 51.7589 205.66 51.7589 206.64H52.3889C52.3889 205.99 52.8889 205.61 53.7289 205.61C54.4389 205.61 55.0089 205.91 55.0089 206.86V207.02L53.4089 207.15C52.2789 207.24 51.5989 207.8 51.5989 208.69C51.5989 209.54 52.2089 210.12 53.2389 210.12ZM53.3989 209.56C52.7389 209.56 52.2989 209.26 52.2989 208.67C52.2989 208.13 52.6689 207.73 53.5789 207.65L55.0089 207.54V207.8C55.0089 208.85 54.4189 209.56 53.3989 209.56ZM57.7635 210V207C57.7635 206.26 58.2535 205.66 59.0635 205.66C59.7935 205.66 60.2635 206.14 60.2635 206.96V210H60.9435V207.01C60.9435 206.26 61.4235 205.65 62.2335 205.65C62.9735 205.65 63.4335 206.14 63.4335 206.97V210H64.1035V206.83C64.1035 205.71 63.4135 205.03 62.3635 205.03C61.5835 205.03 60.9935 205.43 60.7735 206.06C60.5435 205.43 59.9735 205.03 59.2135 205.03C58.5335 205.03 57.9935 205.34 57.7535 205.85L57.6735 205.16H57.0735V210H57.7635ZM67.5215 210.12C68.6615 210.12 69.4115 209.57 69.6715 208.55H69.0115C68.8315 209.19 68.3215 209.53 67.5315 209.53C66.4915 209.53 65.8715 208.85 65.8215 207.67H69.6715V207.33C69.6715 205.96 68.7815 205.03 67.4715 205.03C66.0915 205.03 65.1515 206.07 65.1515 207.58C65.1515 209.1 66.1015 210.12 67.5215 210.12ZM67.4715 205.62C68.3815 205.62 68.9815 206.24 68.9815 207.17H65.8415C65.9615 206.22 66.5615 205.62 67.4715 205.62Z" fill="#707070"/>
<rect x="29.5" y="231.5" width="141" height="29" rx="14.5" stroke="#D8D8D8"/>
<path d="M47.79 250.11C49.33 250.11 50.58 249.2 50.91 247.85H50.14C49.83 248.81 48.93 249.42 47.8 249.42C46.23 249.42 45.18 248.22 45.18 246.42C45.18 244.61 46.23 243.41 47.8 243.41C48.92 243.41 49.8 244.04 50.1 245.07H50.87C50.58 243.65 49.37 242.72 47.83 242.72C45.81 242.72 44.43 244.22 44.43 246.42C44.43 248.62 45.79 250.11 47.79 250.11ZM51.6652 247.58C51.6652 249.05 52.7052 250.12 54.1252 250.12C55.5452 250.12 56.5852 249.05 56.5852 247.58C56.5852 246.1 55.5452 245.03 54.1252 245.03C52.7052 245.03 51.6652 246.1 51.6652 247.58ZM52.3652 247.57C52.3652 246.45 53.0852 245.65 54.1252 245.65C55.1552 245.65 55.8852 246.45 55.8852 247.57C55.8852 248.71 55.1552 249.5 54.1252 249.5C53.0852 249.5 52.3652 248.71 52.3652 247.57ZM58.3788 250V247C58.3788 246.26 58.8688 245.66 59.6788 245.66C60.4088 245.66 60.8788 246.14 60.8788 246.96V250H61.5588V247.01C61.5588 246.26 62.0388 245.65 62.8487 245.65C63.5888 245.65 64.0488 246.14 64.0488 246.97V250H64.7188V246.83C64.7188 245.71 64.0288 245.03 62.9788 245.03C62.1988 245.03 61.6088 245.43 61.3888 246.06C61.1588 245.43 60.5888 245.03 59.8288 245.03C59.1488 245.03 58.6088 245.34 58.3688 245.85L58.2887 245.16H57.6888V250H58.3788ZM66.1067 252.11H66.7967V249.07C67.1367 249.77 67.7867 250.12 68.6067 250.12C70.0367 250.12 70.8467 249.02 70.8467 247.56C70.8467 246.1 70.0067 245.03 68.6067 245.03C67.7967 245.03 67.1167 245.39 66.7767 246.14L66.7067 245.16H66.1067V252.11ZM66.8067 247.58C66.8067 246.46 67.4267 245.66 68.4867 245.66C69.5367 245.66 70.1467 246.46 70.1467 247.58C70.1467 248.69 69.5367 249.5 68.4867 249.5C67.4267 249.5 66.8067 248.69 66.8067 247.58ZM73.3366 250.12C74.1566 250.12 74.8166 249.76 75.1166 249.15L75.2066 250H75.7866V246.87C75.7866 245.59 74.9666 245.03 73.8466 245.03C72.6566 245.03 71.8566 245.66 71.8566 246.64H72.4866C72.4866 245.99 72.9866 245.61 73.8266 245.61C74.5366 245.61 75.1066 245.91 75.1066 246.86V247.02L73.5066 247.15C72.3766 247.24 71.6966 247.8 71.6966 248.69C71.6966 249.54 72.3066 250.12 73.3366 250.12ZM73.4966 249.56C72.8366 249.56 72.3966 249.26 72.3966 248.67C72.3966 248.13 72.7666 247.73 73.6766 247.65L75.1066 247.54V247.8C75.1066 248.85 74.5166 249.56 73.4966 249.56ZM77.8612 250V247.47C77.8612 246.38 78.4212 245.66 79.4112 245.66C80.2112 245.66 80.7212 246.06 80.7212 247.19V250H81.4112V247.04C81.4112 245.82 80.8612 245.03 79.5312 245.03C78.8312 245.03 78.1912 245.38 77.8712 246L77.7712 245.16H77.1712V250H77.8612ZM82.1988 252.11C82.4188 252.16 82.6388 252.18 82.9288 252.18C83.6188 252.18 84.0888 251.87 84.3688 251.11L86.5888 245.16H85.8788L84.3488 249.38L82.7888 245.16H82.0588L84.0188 250.29L83.8088 250.86C83.5688 251.51 83.1488 251.54 82.7288 251.54H82.1988V252.11Z" fill="#707070"/>
<rect x="29.5" y="271.5" width="141" height="29" rx="14.5" stroke="#D8D8D8"/>
<path d="M45.59 282.84H44.87V290H48.88V289.34H45.59V282.84ZM49.3702 287.58C49.3702 289.05 50.4102 290.12 51.8302 290.12C53.2502 290.12 54.2902 289.05 54.2902 287.58C54.2902 286.1 53.2502 285.03 51.8302 285.03C50.4102 285.03 49.3702 286.1 49.3702 287.58ZM50.0702 287.57C50.0702 286.45 50.7902 285.65 51.8302 285.65C52.8602 285.65 53.5902 286.45 53.5902 287.57C53.5902 288.71 52.8602 289.5 51.8302 289.5C50.7902 289.5 50.0702 288.71 50.0702 287.57ZM55.0538 287.59C55.0538 289.11 55.9838 290.12 57.3538 290.12C58.4538 290.12 59.3138 289.47 59.5438 288.48H58.8438C58.6538 289.1 58.0738 289.5 57.3538 289.5C56.3738 289.5 55.7338 288.73 55.7338 287.58C55.7338 286.39 56.4238 285.64 57.4038 285.64C58.0738 285.64 58.6538 286.01 58.8338 286.68H59.5238C59.3338 285.68 58.5138 285.03 57.3938 285.03C55.9838 285.03 55.0538 286.07 55.0538 287.59ZM61.9791 290.12C62.7991 290.12 63.4591 289.76 63.7591 289.15L63.8491 290H64.4291V286.87C64.4291 285.59 63.6091 285.03 62.4891 285.03C61.2991 285.03 60.4991 285.66 60.4991 286.64H61.1291C61.1291 285.99 61.6291 285.61 62.4691 285.61C63.1791 285.61 63.7491 285.91 63.7491 286.86V287.02L62.1491 287.15C61.0191 287.24 60.3391 287.8 60.3391 288.69C60.3391 289.54 60.9491 290.12 61.9791 290.12ZM62.1391 289.56C61.4791 289.56 61.0391 289.26 61.0391 288.67C61.0391 288.13 61.4091 287.73 62.3191 287.65L63.7491 287.54V287.8C63.7491 288.85 63.1591 289.56 62.1391 289.56ZM66.8359 290V285.74H67.8059V285.16H66.8359V283.63H66.1559V285.16H65.1859V285.74H66.1559V290H66.8359ZM69.0444 283.83C69.3244 283.83 69.5644 283.6 69.5644 283.32C69.5644 283.04 69.3244 282.8 69.0444 282.8C68.7644 282.8 68.5344 283.04 68.5344 283.32C68.5344 283.6 68.7644 283.83 69.0444 283.83ZM68.7044 290H69.3944V285.16H68.7044V290ZM70.4933 287.58C70.4933 289.05 71.5333 290.12 72.9533 290.12C74.3733 290.12 75.4133 289.05 75.4133 287.58C75.4133 286.1 74.3733 285.03 72.9533 285.03C71.5333 285.03 70.4933 286.1 70.4933 287.58ZM71.1933 287.57C71.1933 286.45 71.9133 285.65 72.9533 285.65C73.9833 285.65 74.7133 286.45 74.7133 287.57C74.7133 288.71 73.9833 289.5 72.9533 289.5C71.9133 289.5 71.1933 288.71 71.1933 287.57ZM77.2069 290V287.47C77.2069 286.38 77.7669 285.66 78.7569 285.66C79.5569 285.66 80.0669 286.06 80.0669 287.19V290H80.7569V287.04C80.7569 285.82 80.2069 285.03 78.8769 285.03C78.1769 285.03 77.5369 285.38 77.2169 286L77.1169 285.16H76.5169V290H77.2069Z" fill="#707070"/>
<rect x="29.5" y="311.5" width="141" height="29" rx="14.5" stroke="#D8D8D8"/>
<path d="M45.59 330V327.03H47.68L49.14 330H49.94L48.41 326.91C49.33 326.66 49.87 325.94 49.87 324.91C49.87 323.64 48.99 322.84 47.54 322.84H44.87V330H45.59ZM45.59 323.49H47.54C48.52 323.49 49.13 324 49.13 324.93C49.13 325.84 48.55 326.38 47.56 326.38H45.59V323.49ZM50.4249 327.58C50.4249 329.05 51.4649 330.12 52.8849 330.12C54.3049 330.12 55.3449 329.05 55.3449 327.58C55.3449 326.1 54.3049 325.03 52.8849 325.03C51.4649 325.03 50.4249 326.1 50.4249 327.58ZM51.1249 327.57C51.1249 326.45 51.8449 325.65 52.8849 325.65C53.9149 325.65 54.6449 326.45 54.6449 327.57C54.6449 328.71 53.9149 329.5 52.8849 329.5C51.8449 329.5 51.1249 328.71 51.1249 327.57ZM57.1685 330V322.71H56.4785V330H57.1685ZM60.666 330.12C61.806 330.12 62.556 329.57 62.816 328.55H62.156C61.976 329.19 61.466 329.53 60.676 329.53C59.636 329.53 59.016 328.85 58.966 327.67H62.816V327.33C62.816 325.96 61.926 325.03 60.616 325.03C59.236 325.03 58.296 326.07 58.296 327.58C58.296 329.1 59.246 330.12 60.666 330.12ZM60.616 325.62C61.526 325.62 62.126 326.24 62.126 327.17H58.986C59.106 326.22 59.706 325.62 60.616 325.62Z" fill="#707070"/>
<rect x="29" y="351" width="142" height="30" rx="15" fill="#FC4B37"/>
<path d="M73.44 370L74.03 368.31H76.76L77.35 370H78.7L76.06 362.69H74.75L72.11 370H73.44ZM75.24 364.87C75.31 364.67 75.37 364.45 75.4 364.31C75.42 364.46 75.49 364.68 75.55 364.87L76.39 367.23H74.41L75.24 364.87ZM79.4366 372.29H80.6566V369.34C80.9666 369.84 81.6066 370.13 82.3466 370.13C83.8166 370.13 84.6566 369.01 84.6566 367.47C84.6566 365.92 83.7366 364.91 82.3466 364.91C81.5966 364.91 80.9466 365.24 80.6466 365.81L80.5666 365.06H79.4366V372.29ZM80.6666 367.53C80.6666 366.64 81.2166 366.02 82.0566 366.02C82.9166 366.02 83.4266 366.65 83.4266 367.53C83.4266 368.41 82.9166 369.03 82.0566 369.03C81.2166 369.03 80.6666 368.42 80.6666 367.53ZM85.628 372.29H86.848V369.34C87.158 369.84 87.798 370.13 88.538 370.13C90.008 370.13 90.848 369.01 90.848 367.47C90.848 365.92 89.928 364.91 88.538 364.91C87.788 364.91 87.138 365.24 86.838 365.81L86.758 365.06H85.628V372.29ZM86.858 367.53C86.858 366.64 87.408 366.02 88.248 366.02C89.108 366.02 89.618 366.65 89.618 367.53C89.618 368.41 89.108 369.03 88.248 369.03C87.408 369.03 86.858 368.42 86.858 367.53ZM93.0495 370V362.56H91.8395V370H93.0495ZM93.8992 372.29C94.1692 372.36 94.4692 372.4 94.8092 372.4C95.6192 372.4 96.1392 372.02 96.5092 371.1L98.9292 365.06H97.6692L96.3292 368.66L95.0592 365.06H93.7692L95.7592 370.21L95.6192 370.58C95.4092 371.16 95.1092 371.27 94.6292 371.27H93.8992V372.29ZM105.768 370H106.988V365.06H103.748V364.46C103.748 363.97 103.888 363.65 104.438 363.65H104.868V362.61C104.658 362.57 104.428 362.56 104.238 362.56C103.238 362.56 102.538 363.12 102.538 364.46V365.06H101.828V366.08H102.538V370H103.748V366.08H105.768V370ZM106.378 364.05C106.778 364.05 107.098 363.73 107.098 363.32C107.098 362.92 106.778 362.6 106.378 362.6C105.968 362.6 105.648 362.92 105.648 363.32C105.648 363.73 105.968 364.05 106.378 364.05ZM109.475 370V362.56H108.265V370H109.475ZM112.435 370V366.08H113.395V365.06H112.435V363.52H111.215V365.06H110.265V366.08H111.215V370H112.435ZM116.315 370.13C117.605 370.13 118.505 369.48 118.715 368.4H117.585C117.445 368.87 117.005 369.13 116.335 369.13C115.525 369.13 115.065 368.69 114.975 367.82L118.695 367.81V367.44C118.695 365.9 117.755 364.91 116.275 364.91C114.825 364.91 113.815 365.98 113.815 367.53C113.815 369.06 114.845 370.13 116.315 370.13ZM116.285 365.91C117.015 365.91 117.485 366.36 117.485 367.04H115.005C115.125 366.3 115.565 365.91 116.285 365.91ZM122.771 365.04C122.571 364.99 122.401 364.97 122.231 364.97C121.571 364.97 121.101 365.3 120.891 365.79L120.821 365.07H119.671V370H120.891V367.6C120.891 366.64 121.441 366.17 122.321 366.17H122.771V365.04ZM123.217 368.5C123.217 369.47 123.997 370.13 125.227 370.13C126.447 370.13 127.297 369.51 127.297 368.51C127.297 367.75 126.877 367.37 126.047 367.18L125.157 366.97C124.737 366.87 124.517 366.69 124.517 366.41C124.517 366.04 124.797 365.82 125.277 365.82C125.747 365.82 126.027 366.09 126.037 366.51H127.197C127.187 365.55 126.437 364.91 125.327 364.91C124.187 364.91 123.367 365.49 123.367 366.46C123.367 367.25 123.797 367.67 124.687 367.87L125.577 368.08C126.017 368.18 126.147 368.36 126.147 368.61C126.147 368.97 125.837 369.2 125.267 369.2C124.707 369.2 124.387 368.93 124.377 368.5H123.217Z" fill="white"/>
<path d="M35.524 160.702H31.548V165H30.176V154.878H36.28V156.138H31.548V159.456H35.524V160.702ZM38.9776 156.278C38.8096 156.446 38.6043 156.53 38.3616 156.53C38.119 156.53 37.9136 156.446 37.7456 156.278C37.5776 156.101 37.4936 155.895 37.4936 155.662C37.4936 155.419 37.5776 155.214 37.7456 155.046C37.9136 154.878 38.119 154.794 38.3616 154.794C38.6043 154.794 38.8096 154.878 38.9776 155.046C39.1456 155.214 39.2296 155.419 39.2296 155.662C39.2296 155.895 39.1456 156.101 38.9776 156.278ZM37.7176 165V158.154H39.0336V165H37.7176ZM42.2882 165H40.9722V154.696H42.2882V165ZM46.1574 165H44.8414V159.26H43.4974V158.154H44.8414V156.012H46.1574V158.154H47.5014V159.26H46.1574V165ZM51.5681 165.168C50.5601 165.168 49.7388 164.837 49.1041 164.174C48.4788 163.511 48.1661 162.648 48.1661 161.584C48.1661 160.511 48.4741 159.638 49.0901 158.966C49.7154 158.294 50.5228 157.958 51.5121 157.958C52.4828 157.958 53.2621 158.266 53.8501 158.882C54.4381 159.498 54.7321 160.315 54.7321 161.332V161.822L49.4401 161.836C49.4868 162.555 49.6921 163.11 50.0561 163.502C50.4294 163.885 50.9428 164.076 51.5961 164.076C52.6414 164.076 53.2808 163.675 53.5141 162.872H54.7461C54.5781 163.609 54.2188 164.179 53.6681 164.58C53.1174 164.972 52.4174 165.168 51.5681 165.168ZM51.5121 159.064C50.9428 159.064 50.4808 159.227 50.1261 159.554C49.7714 159.881 49.5521 160.347 49.4681 160.954H53.4161C53.4161 160.385 53.2434 159.927 52.8981 159.582C52.5528 159.237 52.0908 159.064 51.5121 159.064ZM60.122 158.098V159.302H59.534C58.9087 159.302 58.414 159.484 58.05 159.848C57.6953 160.212 57.518 160.721 57.518 161.374V165H56.202V158.168H57.434L57.518 159.204C57.658 158.84 57.896 158.551 58.232 158.336C58.568 158.121 58.9647 158.014 59.422 158.014C59.6273 158.014 59.8607 158.042 60.122 158.098ZM60.7963 163.012H62.0563C62.0563 163.357 62.1776 163.633 62.4203 163.838C62.6723 164.034 63.0176 164.132 63.4563 164.132C63.9136 164.132 64.2683 164.043 64.5203 163.866C64.7816 163.689 64.9123 163.441 64.9123 163.124C64.9123 162.881 64.8423 162.69 64.7023 162.55C64.5623 162.401 64.3196 162.284 63.9743 162.2L62.7703 161.92C61.5756 161.631 60.9783 160.996 60.9783 160.016C60.9783 159.391 61.2163 158.891 61.6923 158.518C62.1683 158.145 62.789 157.958 63.5543 157.958C64.301 157.958 64.8983 158.154 65.3463 158.546C65.8036 158.929 66.0416 159.447 66.0603 160.1H64.8003C64.7816 159.755 64.6603 159.484 64.4363 159.288C64.2123 159.083 63.9043 158.98 63.5123 158.98C63.1016 158.98 62.7843 159.069 62.5603 159.246C62.3363 159.414 62.2243 159.657 62.2243 159.974C62.2243 160.431 62.5603 160.744 63.2323 160.912L64.4363 161.206C65.0336 161.346 65.4723 161.561 65.7523 161.85C66.0323 162.139 66.1723 162.536 66.1723 163.04C66.1723 163.684 65.9203 164.202 65.4163 164.594C64.9123 164.977 64.2496 165.168 63.4283 165.168C62.6256 165.168 61.9863 164.972 61.5103 164.58C61.0343 164.188 60.7963 163.665 60.7963 163.012Z" fill="black"/>
</svg>
