<svg width="80" height="80" viewBox="0 0 80 80" fill="none" xmlns="http://www.w3.org/2000/svg">
<circle cx="40" cy="40" r="40" fill="#FC4B37" fill-opacity="0.12"/>
<path d="M26.1297 34.7986H53.8703M34.7986 35.6655L34.7986 53.8703M25.5881 45.0826C24.804 41.7396 24.804 38.2604 25.5881 34.9174C26.674 30.2883 30.2883 26.674 34.9174 25.5881C38.2604 24.804 41.7396 24.804 45.0826 25.5881C49.7117 26.674 53.3261 30.2883 54.4119 34.9174C55.196 38.2604 55.196 41.7396 54.4119 45.0826C53.326 49.7117 49.7117 53.326 45.0826 54.4119C41.7396 55.196 38.2604 55.196 34.9174 54.4119C30.2884 53.326 26.674 49.7117 25.5881 45.0826Z" stroke="#FC4B37" stroke-width="3"/>
</svg>
