<svg width="80" height="80" viewBox="0 0 80 80" fill="none" xmlns="http://www.w3.org/2000/svg">
<circle cx="40" cy="40" r="40" fill="#FC4B37" fill-opacity="0.12"/>
<path d="M41.5245 22.9933C43.3431 23.3345 44.6276 24.97 44.5279 26.8176L44.3864 29.4418C47.5674 30.7628 49.999 33.4716 50.9702 36.7762L53.5945 36.9177C55.442 37.0173 56.93 38.4703 57.0735 40.3149C57.105 40.7187 57.0831 41.1248 57.0084 41.5228C56.6673 43.3413 55.0318 44.6258 53.1842 44.5262L50.5599 44.3847C49.2389 47.5657 46.5302 49.9972 43.2256 50.9685L43.0841 53.5927C42.9844 55.4403 41.5315 56.9282 39.6868 57.0718C39.2831 57.1032 38.877 57.0813 38.479 57.0067C36.6604 56.6656 35.3759 55.03 35.4756 53.1824L35.6171 50.5582C32.4361 49.2372 30.0046 46.5284 29.0333 43.2238L26.409 43.0823C24.5614 42.9827 23.0735 41.5298 22.93 39.6851C22.8985 39.2814 22.9204 38.8752 22.9951 38.4772C23.3362 36.6587 24.9718 35.3742 26.8193 35.4738L29.4436 35.6153C30.7646 32.4343 33.4733 30.0028 36.7779 29.0315L36.9194 26.4073C37.0191 24.5597 38.472 23.0718 40.3167 22.9282C40.7204 22.8968 41.1265 22.9187 41.5245 22.9933Z" stroke="#FC4B37" stroke-width="3" stroke-linecap="round" stroke-linejoin="round"/>
<path d="M35.2598 39.746C35.4011 37.1259 37.6397 35.1164 40.2598 35.2577C42.8799 35.399 44.8894 37.6375 44.7481 40.2577C44.6068 42.8778 42.3683 44.8873 39.7481 44.746C37.128 44.6047 35.1185 42.3661 35.2598 39.746Z" stroke="#FC4B37" stroke-width="3"/>
</svg>
