<svg width="80" height="80" viewBox="0 0 80 80" fill="none" xmlns="http://www.w3.org/2000/svg">
<circle cx="40" cy="40" r="40" fill="#FC4B37" fill-opacity="0.12"/>
<path d="M33.1246 24V28.4689M47.0976 24V28.4689M34.8712 45.8975H40.1111M34.8712 40.5349H45.351M25.5925 45.7751C24.8025 42.3284 24.8025 38.7413 25.5925 35.2946C26.6864 30.522 30.3275 26.7956 34.9908 25.6761C38.3587 24.8676 41.8636 24.8676 45.2314 25.6761C49.8947 26.7956 53.5359 30.5221 54.6297 35.2946C55.4197 38.7413 55.4197 42.3284 54.6297 45.7751C53.5359 50.5477 49.8947 54.2741 45.2314 55.3936C41.8636 56.2021 38.3587 56.2021 34.9909 55.3936C30.3275 54.2741 26.6864 50.5477 25.5925 45.7751Z" stroke="#FC4B37" stroke-width="3" stroke-linecap="round"/>
</svg>
