<svg width="80" height="80" viewBox="0 0 80 80" fill="none" xmlns="http://www.w3.org/2000/svg">
<circle cx="40" cy="40" r="40" fill="#FC4B37" fill-opacity="0.12"/>
<path d="M40.3472 27.3221C40.0563 25.9432 38.8013 24.9839 37.3944 25.0651C37.0373 25.0857 36.6853 25.1599 36.3503 25.2853C35.0305 25.7795 34.27 27.164 34.5609 28.5429L34.9723 30.4928C34.2403 30.8795 33.5637 31.3459 32.9513 31.8783L31.2809 30.7899C30.1002 30.0206 28.5345 30.2297 27.597 31.2819C27.359 31.5489 27.1627 31.8503 27.0145 32.1759C26.4307 33.4585 26.8719 34.9753 28.0526 35.7446L29.723 36.833C29.4834 37.6082 29.3301 38.4156 29.2721 39.2414L27.3222 39.6528C25.9433 39.9437 24.984 41.1987 25.0651 42.6056C25.0857 42.9627 25.16 43.3147 25.2854 43.6497C25.7795 44.9694 27.164 45.7299 28.5429 45.439L30.4928 45.0276C30.8795 45.7597 31.3459 46.4363 31.8783 47.0486L30.7899 48.7191C30.0206 49.8998 30.2297 51.4655 31.2819 52.403C31.549 52.6409 31.8504 52.8373 32.1759 52.9855C33.4585 53.5693 34.9753 53.1281 35.7446 51.9474L36.833 50.2769C37.6082 50.5166 38.4156 50.6699 39.2414 50.7279L39.6528 52.6778C39.9437 54.0567 41.1987 55.016 42.6056 54.9348C42.9627 54.9143 43.3147 54.84 43.6497 54.7146C44.9695 54.2205 45.73 52.836 45.4391 51.4571L45.0277 49.5071C45.7597 49.1205 46.4363 48.6541 47.0487 48.1217L48.7191 49.2101C49.8998 49.9794 51.4655 49.7703 52.403 48.7181C52.641 48.451 52.8373 48.1496 52.9855 47.8241C53.5693 46.5414 53.1281 45.0247 51.9474 44.2554L50.277 43.167C50.5166 42.3918 50.6699 41.5844 50.7279 40.7585L52.6779 40.3471C54.0568 40.0562 55.016 38.8013 54.9349 37.3943C54.9143 37.0372 54.84 36.6853 54.7146 36.3503C54.2205 35.0305 52.836 34.27 51.4571 34.5609L49.5072 34.9723C49.1205 34.2403 48.6541 33.5636 48.1217 32.9513L49.2101 31.2809C49.9794 30.1001 49.7703 28.5344 48.7181 27.597C48.451 27.359 48.1497 27.1626 47.8241 27.0145C46.5415 26.4306 45.0247 26.8718 44.2554 28.0526L43.167 29.723C42.3918 29.4833 41.5844 29.33 40.7586 29.2721L40.3472 27.3221Z" stroke="#FC4B37" stroke-width="3" stroke-linecap="round" stroke-linejoin="round"/>
<path d="M35.8711 40.8699C35.39 38.5895 36.8486 36.351 39.1289 35.8699C41.4092 35.3888 43.6478 36.8473 44.1289 39.1277C44.61 41.408 43.1514 43.6466 40.8711 44.1277C38.5908 44.6088 36.3522 43.1502 35.8711 40.8699Z" stroke="#FC4B37" stroke-width="3"/>
</svg>
